<svg version="1.0"
    xmlns="http://www.w3.org/2000/svg" width="1076.000000pt" height="1280.000000pt" viewBox="0 0 1076.000000 1280.000000" preserveAspectRatio="xMidYMid meet">
    <defs>
        <linearGradient id="grad1" x1="0%" y1="0%" x2="100%" y2="0%">
            <stop offset="0%" style="stop-color:rgb(93, 245, 66);stop-opacity:1" />
            <stop offset="100%" style="stop-color:rgb(31, 137, 242);stop-opacity:1" />
        </linearGradient>
    </defs>
    <g transform="translate(0.000000,1280.000000) scale(0.100000,-0.100000)" fill="url(#grad1)" stroke="none">
        <path d="M5645 12793 c-863 -55 -1715 -350 -2464 -853 -1030 -691 -1752 -1691
-1955 -2710 -45 -224 -109 -691 -160 -1160 l-23 -215 -251 -630 c-619 -1559
-772 -1947 -783 -1990 -15 -61 -6 -156 21 -230 32 -82 131 -182 215 -216 59
-24 66 -24 428 -27 l367 -3 0 -677 c0 -372 5 -738 10 -812 42 -542 293 -1023
711 -1359 272 -219 590 -357 938 -405 88 -13 208 -16 566 -16 l455 0 0 -745 0
-745 2590 0 2590 0 0 2059 0 2059 113 93 c133 110 492 466 599 594 886 1060
1283 2409 1107 3765 -101 778 -398 1540 -850 2177 -923 1299 -2413 2065 -3989
2051 -102 -1 -207 -3 -235 -5z m2230 -1285 c3 -13 32 -178 65 -367 33 -190 63
-348 67 -352 5 -3 33 -14 63 -24 30 -9 110 -44 177 -77 l122 -60 286 202 c158
111 292 203 298 206 7 2 124 -108 261 -245 177 -178 246 -253 240 -262 -4 -8
-101 -147 -216 -310 l-208 -296 36 -73 c26 -54 108 -277 109 -297 0 -2 698
-123 709 -123 3 0 6 -162 6 -360 0 -198 -3 -360 -7 -360 -5 0 -125 -20 -268
-45 -143 -25 -306 -53 -362 -62 l-102 -17 -26 -75 c-15 -42 -52 -125 -82 -184
l-55 -108 35 -52 c20 -29 113 -160 206 -292 94 -132 171 -245 171 -250 0 -6
-112 -122 -249 -259 l-248 -248 -307 217 -307 216 -97 -41 c-53 -23 -137 -55
-187 -71 -49 -17 -91 -31 -92 -33 -3 -3 -113 -643 -113 -658 0 -4 53 -9 117
-10 l117 -3 31 -175 30 -174 62 -21 c34 -12 91 -37 126 -55 l65 -33 132 92
c72 51 137 94 143 97 7 2 63 -47 126 -110 l114 -114 -105 -149 -105 -148 32
-65 c18 -36 41 -92 51 -125 10 -33 18 -61 19 -62 1 -1 68 -14 151 -28 82 -14
159 -28 172 -30 22 -5 22 -7 22 -170 0 -91 -3 -165 -8 -165 -9 0 -282 -47
-324 -56 -22 -4 -30 -14 -39 -47 -6 -23 -30 -80 -53 -127 l-43 -85 99 -140 99
-139 -117 -117 -117 -117 -121 86 c-66 47 -133 94 -147 104 -25 19 -26 19 -98
-16 -40 -19 -95 -40 -123 -47 -33 -9 -53 -20 -59 -34 -7 -16 -59 -300 -59
-320 0 -3 -74 -5 -165 -5 -163 0 -165 0 -170 22 -5 24 -55 322 -55 331 0 3
-17 8 -37 11 -21 4 -79 27 -130 52 l-92 45 -135 -95 c-74 -53 -138 -96 -143
-96 -5 0 -59 51 -121 113 l-112 113 104 148 104 147 -38 82 c-21 45 -44 103
-50 130 -7 26 -16 47 -21 47 -13 0 -302 50 -322 56 -16 5 -17 20 -15 167 l3
162 179 30 180 31 11 45 c7 24 31 82 53 127 l42 83 -100 142 -100 141 112 113
c62 62 116 113 121 113 5 0 69 -43 143 -95 73 -53 140 -98 148 -101 8 -3 38 7
67 22 30 15 85 37 124 50 l69 22 23 128 c12 71 23 137 23 146 0 16 -23 18
-307 20 l-308 3 -65 369 -65 370 -95 36 c-52 20 -135 56 -183 82 l-88 45 -297
-208 -296 -209 -253 252 c-138 138 -250 255 -247 259 2 4 99 141 214 304 116
164 210 301 210 305 0 4 -16 41 -35 81 -19 41 -52 123 -72 184 l-38 109 -355
61 -355 61 -3 292 c-1 161 -6 292 -11 292 -10 0 -298 -48 -328 -55 -13 -3 -23
-13 -23 -22 0 -8 -20 -58 -45 -111 -25 -52 -45 -98 -45 -102 0 -4 60 -93 134
-197 l134 -191 -167 -166 -166 -166 -200 142 c-196 138 -200 141 -230 128 -16
-7 -67 -27 -113 -45 -45 -17 -85 -35 -90 -39 -4 -4 -25 -110 -47 -234 l-40
-227 -232 -3 -231 -2 -10 47 c-6 27 -25 137 -43 245 l-34 197 -50 16 c-27 9
-80 33 -116 52 l-67 36 -188 -133 c-104 -73 -194 -134 -199 -136 -6 -2 -84 69
-173 159 l-164 164 144 204 145 204 -27 60 c-15 33 -35 85 -45 115 -10 30 -18
56 -19 57 -1 1 -96 18 -211 38 -116 20 -220 38 -233 41 l-22 4 0 234 0 234 27
6 c16 3 122 22 238 42 115 19 213 38 217 40 5 3 8 12 8 21 0 8 21 59 46 113
l46 98 -136 193 -137 193 163 163 c89 90 166 163 169 163 4 0 91 -60 195 -133
104 -73 194 -136 201 -140 7 -4 34 3 60 16 26 13 78 34 115 47 38 13 70 31 72
39 3 9 22 114 42 234 l37 217 234 0 c128 0 233 -1 234 -2 0 -2 19 -110 42
-241 l42 -238 73 -30 c41 -16 93 -40 116 -54 l42 -24 191 134 c105 74 195 135
200 135 4 0 81 -73 170 -162 l163 -163 -145 -204 -144 -203 21 -42 c12 -22 33
-75 48 -116 l28 -75 231 -39 231 -39 0 -169 c0 -166 0 -168 22 -168 19 0 521
83 574 95 16 3 27 22 44 72 12 38 48 121 80 185 l58 118 -205 287 c-113 157
-207 292 -210 298 -4 13 490 500 507 500 5 0 144 -95 309 -212 l300 -212 83
38 c46 21 128 53 183 71 55 18 103 36 106 39 4 3 32 159 63 346 32 187 59 346
61 353 3 9 84 12 359 12 l356 0 5 -22z m-5496 -3553 c91 -24 162 -66 238 -141
119 -117 171 -253 160 -419 -18 -281 -258 -504 -543 -505 -71 0 -196 34 -263
72 -123 70 -233 219 -261 355 -17 80 -8 223 19 298 39 110 133 225 231 283 83
50 166 71 270 72 52 0 119 -7 149 -15z"/>
        <path d="M3434 10196 c-215 -69 -354 -261 -354 -486 1 -147 46 -257 149 -359
105 -105 214 -150 361 -151 147 0 255 45 360 150 105 105 150 213 150 360 0
147 -45 255 -150 361 -135 136 -333 184 -516 125z"/>
        <path d="M7353 9655 c-332 -75 -504 -423 -356 -725 123 -253 430 -359 678
-235 185 91 287 255 287 460 0 180 -87 339 -238 435 -101 63 -257 91 -371 65z"/>
        <path d="M7733 5966 c-332 -76 -499 -459 -331 -755 106 -186 332 -290 538
-247 396 83 552 547 283 846 -120 134 -314 196 -490 156z"/>
    </g>
</svg>
