<svg version="1.0"
    xmlns="http://www.w3.org/2000/svg" width="1280.000000pt" height="894.000000pt" viewBox="0 0 1280.000000 894.000000" preserveAspectRatio="xMidYMid meet">
    <g transform="translate(0.000000,894.000000) scale(0.100000,-0.100000)" fill="url(#grad1)" stroke="none">
        <defs>
            <linearGradient id="grad1" x1="0%" y1="0%" x2="100%" y2="0%">
                <stop offset="0%" style="stop-color:rgb(123, 101, 66);stop-opacity:1" />
                <stop offset="100%" style="stop-color:rgb(213, 193, 156);stop-opacity:1" />
            </linearGradient>
        </defs>
        <path d="M7245 8921 c-444 -81 -802 -287 -1096 -627 -203 -235 -332 -409 -262
-353 17 14 -67 -111 -134 -200 -46 -61 -41 -70 14 -25 47 39 48 39 25 7 -67
-94 -95 -219 -52 -230 12 -3 19 -8 18 -12 -2 -3 -16 -30 -31 -58 -15 -29 -25
-53 -23 -53 4 0 79 126 113 188 42 77 187 237 307 338 276 232 617 408 917
472 407 88 734 21 938 -193 120 -127 200 -270 286 -515 26 -74 70 -184 97
-244 120 -267 161 -458 155 -718 -2 -90 -5 -172 -8 -182 -7 -34 21 -29 36 7
21 50 38 319 31 492 -3 83 -2 166 3 185 l8 35 8 -28 c4 -15 9 -26 11 -24 3 2
-7 49 -20 105 -32 132 -42 212 -27 212 13 0 61 -95 61 -119 0 -8 2 -12 5 -10
12 12 -17 181 -45 261 -24 70 -30 102 -28 151 l3 62 24 -60 c12 -33 54 -145
93 -250 59 -161 88 -229 88 -203 0 28 -153 446 -190 518 -18 35 -52 171 -45
178 6 6 75 -125 114 -215 40 -92 90 -240 136 -406 16 -53 30 -96 32 -94 5 5
-61 307 -97 443 -80 301 -192 524 -357 704 -37 41 -89 105 -115 141 -114 160
-285 263 -523 316 -111 24 -350 26 -470 4z"/>
        <path d="M3860 8604 c-109 -21 -262 -67 -433 -131 -129 -47 -250 -85 -335
-103 -259 -56 -422 -113 -639 -224 -250 -127 -461 -283 -649 -478 -243 -254
-365 -492 -381 -749 -14 -220 57 -424 219 -625 57 -71 273 -274 291 -274 5 0
-2 14 -14 31 -20 29 -17 27 42 -16 63 -47 290 -185 303 -185 14 0 -6 21 -57
62 -29 23 -47 39 -42 36 6 -2 37 -16 69 -31 142 -67 268 -75 253 -17 -4 17 -2
20 11 15 9 -4 44 -9 77 -11 l60 -3 -60 9 c-334 52 -714 396 -780 705 -20 94
-19 147 5 240 71 278 369 538 945 825 403 201 1015 435 1203 460 166 22 379
-24 645 -139 150 -65 540 -364 668 -513 82 -95 112 -157 107 -222 -3 -45 -1
-51 17 -51 49 0 2 120 -136 350 -43 71 -110 164 -168 230 -110 125 -156 184
-150 190 3 2 28 -14 57 -36 28 -22 52 -36 52 -32 0 7 -206 157 -331 241 -25
17 -51 37 -58 46 -34 41 89 2 156 -50 46 -35 41 -16 -5 22 -82 68 -184 125
-360 199 -101 43 -181 79 -178 82 7 7 162 -27 245 -54 105 -34 215 -83 342
-153 59 -33 114 -60 121 -60 23 0 -144 102 -257 156 -135 64 -246 99 -384 120
-114 17 -250 42 -291 52 -45 12 193 14 270 2 164 -25 363 -91 487 -161 29 -17
105 -67 170 -113 145 -102 173 -120 173 -113 0 8 -260 190 -335 234 -183 107
-326 168 -490 210 -83 21 -129 26 -265 28 -91 2 -176 1 -190 -1z"/>
        <path d="M10265 7533 c-146 -10 -310 -48 -640 -148 -115 -35 -237 -72 -270
-81 -56 -17 -58 -18 -30 -24 25 -5 13 -11 -80 -37 -60 -18 -141 -40 -180 -50
l-70 -18 65 -3 65 -3 -70 -23 c-85 -27 -191 -82 -199 -103 -4 -9 -1 -22 5 -29
13 -16 13 -16 -81 -38 -36 -8 -56 -15 -45 -15 11 0 70 11 130 25 238 54 498
104 655 126 221 30 639 32 795 4 456 -83 705 -333 824 -826 68 -280 60 -492
-29 -745 -32 -92 -180 -387 -231 -462 -94 -136 -287 -352 -402 -449 -132 -111
-198 -139 -292 -122 -24 4 -33 -29 -10 -38 48 -19 374 128 524 235 120 86 181
124 181 113 0 -5 -16 -27 -36 -50 -19 -23 -33 -42 -31 -42 3 0 61 64 130 143
68 78 131 148 141 156 42 35 26 -27 -26 -102 -21 -30 -5 -17 54 43 57 58 98
111 128 165 41 76 128 191 137 182 5 -6 -61 -156 -100 -227 -17 -30 -71 -117
-120 -193 -49 -76 -88 -139 -86 -142 7 -7 202 277 236 345 18 36 48 106 67
155 19 50 37 97 40 105 11 27 76 125 76 115 0 -5 -11 -50 -25 -100 -63 -230
-146 -376 -382 -673 l-18 -22 -59 20 c-88 30 -99 23 -26 -16 36 -19 54 -32 40
-29 -120 27 -169 35 -214 35 -56 0 -83 -17 -72 -45 4 -12 -3 -11 -35 6 -23 11
-43 18 -46 15 -8 -8 42 -30 282 -121 702 -268 879 -345 1019 -446 172 -123
290 -259 343 -396 36 -94 38 -225 4 -333 -48 -155 -146 -318 -242 -401 -190
-165 -470 -340 -1313 -819 -186 -105 -361 -205 -389 -222 -27 -16 -53 -26 -57
-21 -4 4 -35 46 -70 93 -130 173 -239 265 -640 540 -232 158 -299 209 -334
251 -19 22 -30 29 -37 22 -25 -25 55 -114 206 -234 73 -58 255 -244 255 -261
0 -10 -5 -7 -55 24 -16 11 -10 2 15 -19 134 -114 233 -223 216 -240 -10 -10
-53 17 -97 61 -32 31 -38 35 -29 16 17 -34 140 -187 180 -225 36 -34 64 -84
74 -132 6 -27 -16 -8 -161 135 -146 145 -244 227 -232 195 2 -6 56 -57 119
-115 63 -57 157 -149 208 -203 86 -91 92 -100 76 -112 -16 -12 -41 10 -249
216 -203 202 -286 275 -274 243 2 -5 45 -45 95 -88 49 -44 106 -97 125 -119
91 -104 224 -298 215 -314 -9 -14 -185 -145 -309 -228 -118 -80 -301 -175
-417 -218 -99 -36 -227 -46 -266 -20 -29 18 -51 8 -41 -19 10 -24 84 -39 172
-33 108 7 218 41 484 148 123 49 228 88 234 86 5 -1 -13 -18 -42 -36 -28 -19
-50 -36 -47 -38 2 -3 31 13 63 34 74 51 234 145 238 141 2 -2 -28 -30 -67 -63
-46 -40 -119 -85 -216 -135 -165 -84 -252 -142 -505 -333 -275 -207 -388 -267
-483 -252 -97 14 -460 232 -626 376 -64 56 -78 61 -53 22 l18 -28 -29 25 c-16
13 -70 65 -121 114 -51 50 -95 88 -98 85 -2 -3 9 -27 26 -54 l31 -49 -53 45
c-129 109 -219 149 -219 97 0 -19 -12 -11 -72 47 -64 63 -62 60 22 -32 51 -56
96 -104 100 -105 15 -6 166 -178 359 -408 107 -129 236 -276 286 -326 233
-234 449 -303 728 -230 269 69 645 309 1132 720 331 280 358 312 360 445 l1
65 149 79 c83 43 286 155 452 248 307 173 445 242 543 274 252 82 645 332 823
525 147 159 262 390 313 631 26 123 24 327 -4 434 -83 308 -311 543 -682 705
-192 84 -752 271 -767 256 -3 -3 9 -12 28 -20 19 -9 30 -15 25 -16 -17 0 -281
71 -288 78 -4 4 40 63 98 132 239 284 375 542 436 825 25 117 44 665 28 793
-36 277 -187 574 -390 766 -159 149 -385 267 -595 310 -70 14 -312 38 -340 34
-5 -1 -32 -3 -60 -5z m560 -5772 c-6 -5 -84 -59 -175 -120 -158 -106 -179
-115 -180 -75 0 18 162 120 245 153 42 17 85 36 94 41 21 12 28 12 16 1z
m-255 -95 c0 -9 -103 -65 -111 -60 -22 13 -5 33 44 47 57 17 67 19 67 13z"/>
        <path d="M8812 7290 c0 -8 4 -26 8 -40 6 -20 8 -21 8 -5 0 11 -3 29 -8 40 -5
12 -8 14 -8 5z"/>
        <path d="M8611 7154 c0 -11 3 -14 6 -6 3 7 2 16 -1 19 -3 4 -6 -2 -5 -13z"/>
        <path d="M1755 5633 c-430 -35 -798 -180 -1086 -426 -245 -209 -462 -561 -572
-927 -102 -338 -116 -488 -58 -642 116 -310 509 -732 965 -1037 351 -234 545
-302 987 -346 l56 -6 -37 -77 c-134 -278 -203 -585 -185 -817 23 -310 121
-534 312 -715 243 -232 603 -339 1036 -310 151 10 158 11 341 47 199 39 412
115 574 207 323 183 523 455 588 805 14 76 15 111 4 298 -6 116 -9 217 -5 222
3 6 -1 11 -9 11 -29 0 -36 -38 -36 -197 0 -179 -9 -229 -65 -346 -39 -82 -60
-108 -49 -60 14 64 14 68 3 43 -60 -133 -97 -197 -137 -238 -35 -36 -46 -43
-49 -30 -4 16 17 62 53 118 9 14 -40 -33 -110 -103 -119 -121 -152 -145 -219
-161 -25 -6 -19 2 37 55 79 73 167 188 208 270 45 90 28 92 -24 2 -58 -99
-147 -212 -231 -289 -48 -45 -79 -64 -128 -81 l-64 -22 40 32 c162 128 384
398 415 506 16 58 -6 31 -47 -57 -30 -63 -58 -104 -103 -150 -157 -162 -394
-292 -652 -357 -102 -26 -168 -31 -233 -15 -22 5 -125 17 -230 25 -220 18
-283 27 -383 55 -254 71 -403 243 -490 569 -22 84 -25 117 -26 261 0 157 8
222 39 302 10 26 -10 22 -24 -4 -22 -44 -2 31 32 117 l32 80 92 13 c106 15
408 114 408 134 0 25 -44 19 -171 -23 -110 -37 -144 -43 -226 -46 -54 -2 -98
0 -98 4 0 4 12 42 28 85 21 62 25 81 15 95 -6 10 -16 17 -22 15 -20 -4 -12 11
40 72 l51 61 -59 -61 c-33 -33 -88 -104 -122 -157 -35 -53 -65 -97 -67 -97 -2
0 -40 12 -86 27 l-83 28 60 6 c57 5 58 6 14 7 -106 4 -369 91 -369 123 0 13
73 5 135 -17 21 -7 40 -12 42 -10 3 2 -203 103 -337 164 -61 28 -170 113 -170
132 0 5 55 -18 123 -50 136 -65 291 -121 382 -139 33 -7 68 -15 78 -17 9 -3
17 -1 17 4 0 5 -8 12 -17 15 -56 17 -470 169 -535 196 -78 33 -105 51 -194
130 -58 52 -58 52 76 -21 58 -31 164 -77 235 -102 72 -26 168 -64 215 -86 112
-51 230 -90 294 -97 87 -10 43 12 -164 77 -109 35 -228 80 -270 102 -274 147
-711 494 -801 636 -59 93 -189 360 -189 388 0 44 60 307 99 439 102 338 232
558 457 775 199 191 426 315 669 365 89 18 104 25 55 25 -18 0 -31 3 -27 6 12
12 195 34 286 34 52 0 92 2 89 5 -3 3 -36 11 -74 18 l-69 13 115 8 c199 13
261 33 229 72 -13 16 -11 17 31 11 25 -4 70 -9 100 -11 47 -4 44 -3 -20 9
-149 27 -556 43 -735 28z"/>
        <path d="M7269 1648 c-9 -16 -10 -56 -3 -148 12 -179 11 -278 -5 -332 -16 -58
-30 -62 -32 -10 -1 20 -5 0 -10 -44 -12 -130 -79 -269 -79 -165 0 22 5 52 10
68 10 27 9 27 -5 8 -9 -11 -39 -65 -66 -120 -60 -119 -62 -121 -110 -146 l-38
-19 39 73 c51 94 79 176 87 252 9 91 -9 60 -56 -99 -58 -194 -86 -237 -183
-284 -4 -2 8 20 28 50 50 73 90 154 108 219 8 30 24 79 35 109 20 54 29 163
12 144 -4 -5 -14 -45 -20 -89 -17 -114 -56 -188 -152 -290 -89 -94 -179 -164
-284 -221 l-70 -38 -205 -7 c-113 -4 -244 -10 -290 -14 -103 -8 -285 8 -399
35 -162 39 -350 147 -456 262 -63 67 -140 193 -156 253 -19 69 -21 72 -29 45
-5 -22 -8 -17 -20 30 -7 30 -14 88 -14 127 -1 40 -4 73 -7 73 -4 0 -12 -21
-20 -47 l-12 -48 -9 81 c-4 45 -14 99 -21 120 -10 33 -17 39 -40 39 -23 -1
-27 3 -23 20 10 39 19 110 13 105 -18 -17 -40 -211 -41 -375 -1 -211 13 -317
60 -464 152 -467 560 -760 1109 -797 321 -21 732 93 1003 278 93 64 263 231
315 310 97 148 126 240 134 423 5 115 2 151 -27 318 -17 104 -32 222 -33 263
-2 77 -15 95 -38 52z"/>
    </g>
</svg>
