<svg version="1.0" xmlns="http://www.w3.org/2000/svg"
 width="1280.000000pt" height="1207.000000pt" viewBox="0 0 1280.000000 1207.000000"
 preserveAspectRatio="xMidYMid meet">
<defs>
    <linearGradient id="grad1" x1="0%" y1="0%" x2="100%" y2="0%">
        <stop offset="0%" style="stop-color:rgb(123, 101, 66);stop-opacity:1" />
        <stop offset="100%" style="stop-color:rgb(213, 193, 156);stop-opacity:1" />
    </linearGradient>
</defs>
<g transform="translate(0.000000,1207.000000) scale(0.100000,-0.100000)"
fill="url(#grad1)" stroke="none">
<path d="M9340 12029 c0 -3 9 -32 20 -64 11 -32 18 -60 16 -63 -3 -2 -27 13
-53 33 -48 37 -47 37 7 -14 30 -28 50 -51 44 -51 -7 0 -56 9 -109 20 -54 11
-100 19 -102 17 -2 -2 46 -17 107 -32 61 -16 107 -32 103 -35 -5 -4 -43 -21
-86 -40 -42 -18 -76 -34 -74 -36 2 -2 42 12 90 31 48 18 87 31 87 29 0 -3 -19
-40 -42 -82 -43 -80 -40 -86 6 -17 l27 40 -5 -40 c-5 -32 -4 -35 3 -15 6 14
15 44 21 68 6 23 15 42 20 42 5 0 30 -27 56 -60 62 -79 75 -82 19 -5 -37 51
-39 56 -13 46 13 -5 49 -21 81 -35 93 -42 80 -29 -25 25 -54 27 -98 52 -98 55
0 4 21 32 48 63 74 87 80 102 18 39 -32 -32 -59 -58 -61 -58 -2 0 7 25 21 56
34 76 25 79 -15 4 -18 -33 -34 -60 -37 -60 -3 0 -21 33 -39 73 -19 39 -34 69
-35 66z"/>
<path d="M8061 11810 c-1 -8 13 -105 29 -215 16 -110 30 -208 30 -219 0 -12
-38 17 -121 95 -197 186 -213 193 -52 24 84 -88 150 -161 148 -163 -2 -2 -76
4 -164 13 -88 9 -165 15 -171 13 -7 -2 44 -15 111 -28 l124 -24 -110 -28 c-60
-15 -96 -26 -80 -24 17 2 86 12 155 22 166 23 169 22 129 -58 l-31 -62 -30 37
c-58 72 -74 36 -21 -44 l24 -37 -30 -61 c-17 -34 -29 -61 -27 -61 2 0 18 23
36 50 18 28 33 50 35 50 2 0 19 -22 39 -49 36 -48 36 -49 38 -157 l1 -109 6
87 c4 48 9 89 12 92 7 7 564 -744 564 -762 0 -13 -196 -194 -203 -187 -2 2 10
55 27 119 17 63 31 119 30 123 0 4 -21 -51 -47 -124 -26 -72 -50 -134 -53
-137 -3 -3 -27 96 -54 221 -27 124 -50 222 -52 217 -1 -5 12 -109 30 -231 18
-123 30 -223 27 -223 -3 0 -77 66 -165 147 -155 142 -142 122 54 -79 52 -54
93 -100 90 -102 -3 -3 -88 4 -189 14 -101 11 -185 18 -187 16 -2 -2 52 -13
119 -25 68 -12 130 -25 138 -28 14 -5 -126 -42 -163 -43 -21 0 -568 370 -562
380 2 4 -17 17 -44 30 -27 12 -61 32 -76 44 l-27 21 39 45 c65 76 69 87 14 35
l-53 -50 17 40 c29 70 27 72 -9 10 l-35 -60 -22 53 c-25 60 -36 64 -16 5 12
-35 12 -39 -5 -41 -42 -6 -86 -6 -128 1 -58 9 -44 3 60 -24 l85 -23 -70 -32
c-84 -40 -81 -43 9 -9 36 14 66 22 66 19 0 -3 -16 -36 -36 -72 -19 -37 -28
-58 -20 -47 8 11 22 29 30 40 l15 20 1 -20 c1 -11 7 -3 13 19 7 22 18 41 25
44 7 2 31 -16 54 -40 23 -23 36 -35 28 -25 -7 9 -10 17 -6 17 4 0 147 -93 319
-207 171 -113 363 -240 425 -280 62 -41 112 -77 110 -81 -2 -4 -16 -32 -32
-62 -33 -63 -22 -57 21 12 l29 48 39 -27 c22 -14 42 -27 44 -29 2 -2 3 -58 3
-126 0 -100 2 -113 8 -68 4 30 8 81 9 114 1 47 4 57 16 52 8 -3 189 -121 402
-262 427 -283 503 -332 488 -316 -5 6 -208 145 -450 310 -498 338 -452 291
-440 450 5 64 11 92 20 92 7 0 93 -25 191 -55 98 -30 179 -53 181 -51 2 1 -70
32 -159 67 l-163 64 160 5 160 5 -155 14 c-85 7 -160 16 -166 20 -12 6 189
236 206 236 5 0 122 -152 260 -338 l250 -337 -21 -42 -22 -42 -27 59 c-32 67
-38 69 -15 5 8 -23 15 -45 15 -47 0 -3 -19 10 -42 27 l-43 32 42 -41 c45 -44
42 -47 -37 -30 -80 17 -70 4 12 -16 l72 -18 -69 -33 c-84 -39 -82 -44 3 -9 34
14 64 25 67 25 3 0 -10 -30 -30 -67 -20 -38 -29 -59 -21 -48 48 64 47 63 41
30 -2 -16 3 -7 13 22 21 64 29 72 41 42 10 -26 241 -260 241 -244 0 5 14 -4
32 -21 27 -25 27 -23 -7 19 -22 26 -41 47 -44 47 -3 0 0 -5 7 -12 7 -7 12 -17
12 -22 0 -15 -144 130 -186 185 -41 56 -42 64 -6 45 46 -24 103 -46 98 -38 -2
4 -36 23 -75 42 -39 18 -71 37 -71 40 0 3 13 19 29 34 l28 27 49 -65 c26 -36
51 -62 54 -56 3 5 12 -1 19 -13 13 -20 13 -21 -2 -8 -32 26 -17 0 56 -97 40
-53 93 -125 116 -159 24 -35 46 -63 48 -63 6 0 -3 13 -62 100 -107 154 -247
391 -240 407 8 23 15 14 130 -167 54 -85 102 -159 108 -165 15 -15 12 -10
-210 347 -182 292 -223 354 -223 333 0 -3 43 -74 96 -157 95 -149 109 -178 89
-184 -8 -3 -1097 1747 -1091 1753 1 2 76 -20 166 -47 90 -27 166 -48 167 -46
2 2 -64 29 -147 61 -83 32 -149 59 -147 61 1 2 64 4 139 6 75 1 135 5 133 8
-2 4 -72 13 -155 20 -82 7 -150 15 -150 18 0 2 35 43 78 90 42 47 93 103 112
126 l35 41 -46 -40 c-25 -22 -79 -69 -119 -105 -45 -40 -71 -57 -67 -45 27 88
66 239 63 242 -2 2 -25 -59 -52 -136 -26 -78 -49 -139 -51 -138 -1 2 -23 100
-48 218 -48 224 -53 243 -54 219z m639 -1412 c294 -462 566 -888 603 -945 37
-58 66 -107 64 -109 -5 -5 -90 113 -87 122 1 4 -5 11 -14 16 -9 5 -16 14 -16
20 0 6 -6 16 -14 22 -14 11 -1027 1416 -1071 1486 -20 32 -22 44 -18 133 3 53
8 97 12 97 3 -1 247 -379 541 -842z m-580 745 l-1 -68 -24 29 -24 30 22 38
c12 21 23 38 25 38 1 0 2 -30 2 -67z m289 -1260 c0 -5 -19 -45 -42 -91 l-42
-83 -90 61 c-107 73 -126 90 -105 91 8 0 51 6 95 14 92 14 185 19 184 8z m11
-153 c0 -44 -3 -80 -7 -80 -5 0 -22 13 -40 28 l-32 27 35 53 c18 28 36 52 39
52 3 0 5 -36 5 -80z m830 -263 c0 -8 -9 -22 -20 -32 -19 -17 -19 -17 -7 14 12
32 27 42 27 18z"/>
<path d="M9427 11714 c-14 -14 -6 -84 53 -489 32 -225 105 -733 162 -1128 56
-396 104 -714 106 -708 2 6 -8 99 -22 208 -14 109 -35 268 -46 353 -35 267
-70 538 -95 740 -14 107 -27 203 -29 213 -2 9 1 17 7 17 16 0 158 -37 163 -43
2 -2 -7 -9 -21 -15 -21 -10 -25 -9 -25 3 0 8 -4 15 -10 15 -5 0 -10 -9 -10
-21 0 -13 -10 -23 -31 -31 -16 -6 -28 -12 -26 -14 2 -3 16 0 30 5 30 12 27 29
52 -279 9 -102 20 -239 25 -305 6 -66 15 -174 20 -240 26 -303 30 -360 42
-505 7 -85 14 -146 16 -135 3 11 -1 90 -7 175 -16 215 -29 391 -40 555 -19
271 -32 451 -40 555 -6 87 -5 109 8 129 14 22 15 22 22 5 5 -15 8 -12 14 16
15 72 22 75 61 28 44 -53 54 -63 54 -57 0 3 -11 20 -25 39 -14 18 -23 35 -21
38 3 2 26 -6 51 -17 72 -32 68 -24 -7 15 -38 19 -68 38 -68 43 0 4 17 28 38
52 64 75 68 86 13 34 l-52 -50 20 48 c30 69 26 71 -12 4 l-33 -58 -24 51 c-28
60 -36 60 -15 0 l15 -42 -38 27 -37 28 34 -36 c40 -43 42 -42 -65 -21 l-81 16
-22 172 c-12 94 -31 241 -42 326 -28 224 -45 301 -62 284z m293 -903 c-11 -23
-23 -41 -25 -41 -3 0 -5 16 -5 35 0 28 5 38 23 44 12 5 23 7 25 6 2 -2 -6 -21
-18 -44z"/>
<path d="M10711 11255 c-1 -11 13 -110 29 -220 16 -110 30 -206 30 -214 0 -7
-64 47 -142 120 -186 175 -209 190 -73 48 61 -63 130 -136 155 -162 l45 -49
-55 6 c-30 4 -115 13 -189 21 -74 8 -136 13 -138 11 -2 -2 51 -14 119 -26 68
-13 127 -26 131 -30 5 -4 -7 -10 -25 -14 -87 -17 -179 -39 -176 -42 2 -2 62 5
132 16 133 21 220 26 214 13 -10 -23 -95 -187 -126 -243 -45 -83 -28 -67 37
35 28 44 51 77 51 74 0 -3 -97 -205 -216 -450 -155 -318 -226 -455 -252 -481
-20 -21 -37 -36 -39 -34 -2 2 6 24 17 50 29 69 24 69 -14 1 l-35 -60 -25 58
c-26 58 -45 80 -25 30 6 -16 13 -44 15 -64 l3 -36 -66 14 c-96 20 -102 10 -8
-14 l80 -21 -63 -27 c-74 -34 -77 -44 -3 -16 28 12 51 18 51 15 0 -3 -11 -33
-24 -67 -34 -87 -57 -160 -52 -164 2 -3 12 20 21 49 10 29 27 71 38 93 17 34
21 37 27 21 5 -16 9 -9 18 27 12 46 24 58 37 37 4 -6 -20 -64 -51 -130 -32
-66 -61 -115 -65 -109 -9 16 -20 -17 -12 -38 3 -10 2 -15 -2 -10 -7 6 -76
-144 -75 -162 1 -3 17 26 36 64 20 39 70 134 111 213 l75 144 26 -24 26 -23
-23 33 c-13 18 -22 35 -20 37 7 6 99 -37 99 -46 0 -5 -37 -68 -81 -141 -45
-73 -84 -137 -87 -142 -3 -5 1 -6 8 -1 8 5 11 3 8 -6 -3 -8 -10 -14 -16 -14
-5 0 -13 -3 -17 -7 -4 -3 1 -5 10 -4 17 3 36 23 57 60 7 13 7 16 -1 12 -16
-10 -13 7 5 30 15 19 16 19 9 -1 -4 -13 -3 -16 3 -10 19 20 173 256 178 273 4
9 -13 -11 -36 -46 -24 -34 -45 -60 -48 -57 -3 2 6 22 20 42 57 85 248 391 254
408 18 46 -20 -5 -92 -123 -43 -70 -97 -157 -121 -195 l-43 -67 -50 25 -51 26
230 452 c127 249 244 477 260 507 l31 55 0 -164 c0 -90 2 -162 4 -160 2 2 9
91 16 198 12 197 28 268 57 257 42 -16 316 -96 319 -93 2 2 -58 27 -134 56
-75 30 -141 57 -146 62 -6 5 55 10 145 10 l154 2 -157 16 c-86 9 -159 19 -162
22 -3 3 45 61 106 130 118 131 116 131 -25 5 -48 -43 -89 -77 -92 -75 -2 3 9
52 26 109 16 58 27 110 26 115 -2 6 -23 -48 -46 -118 -24 -71 -46 -126 -49
-123 -3 4 -27 104 -53 224 -26 119 -48 208 -48 197z m-452 -1627 c-26 -53 -25
-51 -38 -43 -7 4 1 21 21 46 17 21 33 39 35 39 2 0 -6 -19 -18 -42z m31 -253
c-24 -36 -44 -64 -47 -62 -2 3 15 34 38 71 23 37 44 65 46 62 2 -2 -14 -34
-37 -71z m-88 -137 c-7 -7 -12 -8 -12 -2 0 14 12 26 19 19 2 -3 -1 -11 -7 -17z"/>
<path d="M12421 10889 c-1 -3 8 -32 19 -64 11 -32 20 -60 20 -62 0 -2 -21 12
-47 33 l-48 37 47 -47 c26 -25 41 -46 33 -46 -7 0 -47 7 -90 16 -85 17 -114
13 -38 -5 146 -36 144 -33 46 -82 -32 -16 -47 -26 -33 -23 21 6 -50 -53 -313
-259 l-38 -29 6 28 c4 23 1 21 -14 -12 -10 -23 -38 -55 -62 -72 -52 -39 -45
-52 -89 160 -19 87 -35 156 -37 154 -2 -1 9 -85 24 -185 l26 -182 -26 -26 -26
-26 -78 70 c-43 39 -94 87 -112 107 -19 20 -40 36 -45 36 -6 0 38 -48 97 -108
59 -59 107 -112 107 -117 -1 -6 -17 -23 -38 -38 -32 -25 -43 -28 -82 -23 -25
3 -74 8 -110 10 -72 6 -49 -3 65 -25 l59 -11 -27 -24 c-15 -13 -44 -26 -65
-30 -30 -6 -33 -9 -16 -13 22 -6 1 -23 -895 -724 -146 -114 -273 -215 -281
-224 -19 -20 63 42 728 551 l534 408 88 14 c119 17 167 4 102 -30 -15 -8 -266
-178 -557 -378 -292 -200 -608 -417 -702 -481 -95 -65 -173 -121 -173 -124 0
-3 13 3 28 14 15 10 331 221 702 469 371 247 681 454 689 459 8 4 -16 -49 -53
-118 -36 -70 -65 -127 -62 -127 2 0 39 56 82 125 l79 125 5 -193 5 -192 14
220 c7 121 14 221 15 223 2 1 85 -23 185 -54 101 -30 185 -54 186 -52 2 2 -65
30 -148 63 l-152 60 165 5 c91 3 154 7 140 8 -14 1 -88 9 -165 17 -77 8 -146
15 -154 15 -7 0 26 44 75 98 143 158 144 160 25 57 -110 -96 -113 -98 -106
-65 21 97 21 97 251 273 120 92 230 179 244 192 40 38 42 30 10 -25 -65 -110
-79 -152 -20 -60 18 28 34 50 36 50 2 0 1 -13 -2 -30 -4 -16 -4 -30 -1 -30 3
0 11 25 17 55 6 30 16 58 22 61 6 4 22 -8 37 -27 52 -67 74 -86 41 -36 -18 27
-30 50 -28 52 1 2 32 -10 67 -26 35 -16 66 -28 67 -26 2 2 -34 23 -80 47 l-84
44 66 81 65 80 -62 -60 -62 -60 21 55 c35 87 34 89 -6 18 -21 -38 -41 -68 -45
-68 -3 0 -20 30 -37 68 -17 37 -31 64 -31 61z m-503 -669 c-22 -59 -38 -77
-38 -42 0 9 -3 26 -5 37 -4 14 4 26 27 43 18 12 34 22 35 22 1 0 -8 -27 -19
-60z m-74 -46 c9 -35 1 -41 -24 -19 -15 14 -17 21 -9 32 17 20 26 16 33 -13z
m-24 -63 c0 -3 -24 -4 -52 -2 l-53 3 30 24 29 23 23 -21 c13 -12 23 -24 23
-27z m-115 -31 c-3 -5 -13 -10 -21 -10 -8 0 -12 5 -9 10 3 6 13 10 21 10 8 0
12 -4 9 -10z"/>
<path d="M9143 10581 c7 -32 125 -357 152 -419 22 -47 19 -51 -26 -41 -23 6
-47 8 -53 6 -6 -2 15 -10 46 -17 80 -18 89 -48 22 -70 -19 -7 -33 -14 -31 -16
2 -2 22 2 45 10 38 14 41 14 47 -4 3 -10 -3 -37 -15 -59 -25 -49 -20 -54 9 -8
l21 32 0 -28 c0 -16 3 -26 8 -24 4 3 63 -145 131 -329 68 -184 126 -333 128
-331 2 2 -35 111 -83 243 -176 490 -166 459 -157 495 11 42 27 47 41 12 11
-27 148 -478 200 -656 14 -48 27 -86 29 -83 2 2 -5 34 -16 72 -31 112 -172
598 -177 613 -3 10 2 8 17 -5 20 -17 19 -14 -4 21 -35 51 -34 59 3 40 40 -21
80 -36 80 -30 0 3 -32 21 -71 40 l-71 36 47 55 c26 30 45 57 43 59 -3 3 -19
-13 -37 -36 -39 -48 -48 -46 -26 6 22 55 10 56 -17 1 -12 -25 -25 -46 -29 -46
-4 0 -17 25 -29 55 -26 65 -37 68 -15 5 19 -53 19 -51 -2 -43 -16 6 -16 4 1
-15 19 -22 13 -29 -13 -13 -7 5 -11 15 -9 22 3 8 0 21 -7 29 -7 8 -36 80 -65
160 -28 80 -63 175 -77 212 -27 74 -50 103 -40 49z m231 -536 c-4 -8 -8 -15
-10 -15 -2 0 -4 7 -4 15 0 8 4 15 10 15 5 0 7 -7 4 -15z"/>
<path d="M7295 10410 c10 -11 20 -20 23 -20 3 0 -3 9 -13 20 -10 11 -20 20
-23 20 -3 0 3 -9 13 -20z"/>
<path d="M11334 10252 c-17 -15 -213 -218 -435 -452 -222 -234 -451 -474 -508
-535 -58 -60 -128 -134 -156 -164 l-50 -55 70 61 c84 73 708 698 714 715 2 7
-1 8 -10 3 -8 -5 79 87 194 204 193 198 240 251 220 251 -4 0 -22 -13 -39 -28z
m-804 -865 c0 -1 -30 -32 -67 -67 l-68 -65 65 68 c60 62 70 72 70 64z"/>
<path d="M6921 10169 c-1 -9 13 -107 29 -217 17 -111 30 -206 30 -213 0 -6
-26 13 -57 41 -32 29 -107 98 -168 153 l-110 101 75 -80 c41 -43 113 -118 160
-166 l85 -88 -35 0 c-19 0 -93 7 -165 15 -181 21 -191 17 -40 -14 l130 -27
-80 -18 c-182 -40 -174 -45 22 -15 75 11 147 18 160 14 23 -5 22 -8 -53 -153
-42 -81 -72 -142 -67 -137 6 6 41 57 77 114 l66 105 1 -215 2 -214 16 237 c9
130 19 239 22 242 3 3 87 -19 186 -49 100 -30 185 -55 190 -54 4 0 -64 29
-152 64 -258 103 -145 74 216 -54 184 -66 564 -201 844 -301 808 -288 956
-341 1024 -366 35 -13 65 -23 67 -21 7 7 -1429 578 -1444 575 -27 -6 19 -27
311 -138 147 -57 266 -105 264 -107 -2 -2 -75 24 -163 56 -183 68 -663 247
-934 347 l-185 69 85 5 c82 5 83 5 35 12 -27 4 -81 10 -120 13 -38 3 -94 11
-123 16 l-53 11 83 90 c124 134 141 161 59 88 -111 -98 -151 -132 -151 -128 0
2 16 59 34 128 19 69 33 126 32 128 -2 1 -25 -61 -52 -138 -34 -97 -51 -135
-56 -123 -4 10 -27 110 -51 223 -25 113 -46 198 -46 189z m1649 -999 c8 -5 11
-10 5 -10 -5 0 -17 5 -25 10 -8 5 -10 10 -5 10 6 0 17 -5 25 -10z"/>
<path d="M11741 9715 c0 -11 13 -110 29 -220 16 -110 27 -201 25 -203 -2 -2
-71 60 -154 138 -83 78 -151 138 -151 134 0 -4 63 -71 140 -150 77 -79 140
-148 140 -152 0 -5 -78 0 -172 10 -95 10 -180 17 -188 15 -8 -1 45 -13 118
-26 73 -14 129 -27 125 -31 -4 -4 -48 -16 -97 -26 -127 -26 -91 -29 63 -5 71
11 141 17 154 13 24 -7 24 -8 -54 -156 -43 -82 -78 -151 -76 -152 1 -1 37 52
80 119 l77 121 1 -200 2 -199 16 225 c15 214 17 225 36 222 10 -2 98 -28 195
-57 96 -29 176 -52 177 -51 2 1 -70 32 -159 67 l-162 64 159 5 c88 3 151 7
140 8 -11 1 -85 9 -164 17 -79 8 -146 17 -149 20 -3 2 35 49 84 102 136 150
138 155 19 51 -60 -53 -111 -95 -112 -94 -2 1 11 53 28 115 16 62 28 115 27
117 -2 1 -24 -56 -50 -129 -25 -73 -48 -125 -51 -117 -3 8 -26 107 -50 220
-25 113 -46 196 -46 185z"/>
<path d="M10112 9665 c15 -16 30 -26 33 -23 4 3 -9 16 -27 28 l-33 23 27 -28z"/>
<path d="M2340 9590 c-7 -39 -16 -73 -20 -75 -4 -2 -31 25 -60 60 -30 36 -55
65 -57 65 -2 0 14 -27 37 -59 22 -33 40 -62 40 -66 0 -3 -16 2 -36 10 -55 23
-55 17 1 -13 l50 -26 -50 -7 c-27 -4 -75 -9 -105 -10 -37 -2 -19 -5 52 -8
l108 -6 -61 -50 c-126 -103 -128 -111 -3 -18 39 29 73 53 76 53 3 0 -3 -35
-13 -77 -22 -92 -23 -114 -3 -58 25 71 28 72 34 20 6 -43 7 -38 8 38 1 48 5
87 8 87 3 0 35 -21 72 -46 l67 -46 -50 47 c-42 40 -46 46 -25 42 14 -3 52 -8
85 -11 51 -4 45 -2 -37 16 -54 11 -98 25 -98 30 0 5 16 43 35 85 19 42 33 78
31 81 -3 2 -21 -27 -41 -64 l-35 -69 6 73 c3 39 4 72 2 72 -3 0 -11 -32 -18
-70z"/>
<path d="M4439 9503 c-9 -10 -29 -70 -44 -133 -16 -63 -35 -120 -43 -127 -8
-7 -12 -21 -10 -31 5 -18 -74 -348 -86 -359 -8 -8 -149 -33 -155 -27 -3 3 27
70 67 151 40 80 72 147 70 149 -2 1 -39 -54 -83 -124 l-80 -126 -5 144 c-4
120 -6 136 -12 90 -4 -30 -8 -84 -8 -120 -1 -36 -4 -83 -8 -105 l-7 -40 -113
213 c-104 194 -136 249 -112 190 4 -13 49 -113 99 -223 49 -109 89 -200 88
-201 -1 -2 -91 42 -200 97 -108 55 -197 98 -197 95 0 -2 88 -55 195 -117 139
-81 190 -115 178 -120 -10 -3 -94 -19 -188 -35 -183 -31 -191 -41 -18 -25 59
5 109 8 111 6 2 -1 -44 -28 -102 -59 -58 -32 -106 -59 -106 -61 0 -2 69 28
153 66 131 59 197 81 197 65 0 -3 -16 -80 -35 -172 -35 -173 -39 -219 -10
-117 30 106 44 148 44 139 1 -8 -22 -145 -78 -461 -11 -60 -33 -189 -50 -286
-47 -267 -48 -271 -76 -321 -15 -27 -28 -48 -29 -48 -2 0 1 28 6 62 11 81 4
85 -12 6 -7 -35 -15 -67 -18 -72 -3 -5 -27 16 -54 45 l-50 54 37 -52 c20 -29
34 -53 31 -53 -4 0 -23 7 -43 15 -54 23 -54 17 2 -13 l50 -26 -100 -12 -100
-11 100 -2 100 -2 -55 -50 -55 -51 53 37 53 38 -5 -154 c-4 -124 -3 -135 3
-59 13 150 28 191 44 125 3 -11 3 5 0 36 -4 38 -2 59 7 64 29 18 29 -16 3
-170 -19 -110 -29 -152 -34 -135 -6 22 -7 21 -8 -10 -1 -19 -4 -66 -7 -105 -4
-51 -3 -66 5 -55 9 13 11 12 10 -5 0 -11 -4 -29 -9 -40 -8 -19 -9 -18 -9 4 -2
43 -12 15 -13 -34 0 -33 -3 -43 -10 -34 -7 10 -8 7 -4 -11 5 -25 3 -37 -29
-135 -9 -27 -18 -61 -20 -75 -2 -14 -4 -25 -5 -25 -1 0 -3 -13 -5 -30 -5 -57
-42 -186 -59 -203 -11 -13 -13 -21 -5 -29 7 -7 8 -17 3 -25 -5 -7 -9 -24 -10
-38 -1 -14 -12 -63 -23 -110 -23 -91 -133 -327 -139 -297 -2 10 1 30 6 45 5
15 7 34 4 42 -5 13 -32 -64 -34 -98 -1 -13 -58 36 -58 50 0 5 32 56 70 113 39
58 68 105 66 105 -3 0 -35 -44 -72 -97 -37 -54 -69 -100 -71 -102 -1 -2 -10 2
-19 10 -16 13 -16 12 -4 -10 11 -22 10 -27 -10 -43 -12 -10 -19 -18 -15 -18 3
0 -3 -13 -15 -30 -17 -23 -29 -30 -58 -31 l-37 -2 32 -6 33 -6 -353 -515
c-193 -284 -442 -647 -552 -808 l-200 -293 -5 123 -5 123 -8 -140 c-9 -150
-13 -174 -26 -159 -5 5 -57 100 -117 211 -59 111 -109 201 -111 200 -1 -2 43
-103 97 -224 55 -122 100 -224 100 -227 0 -3 -52 20 -116 52 -111 55 -114 57
-82 63 31 6 30 6 -12 8 -27 0 -70 13 -107 31 -69 32 -85 32 -25 0 l37 -20 -85
6 c-47 4 -96 10 -109 14 -21 5 -16 9 34 23 32 9 62 14 66 11 5 -3 9 -1 9 4 0
5 39 20 87 32 48 13 82 25 77 27 -5 2 -79 -10 -164 -26 -85 -16 -155 -28 -155
-28 0 1 163 164 362 361 l362 359 12 -47 c15 -61 23 -53 9 9 l-11 48 538 535
c296 293 468 468 383 386 -85 -81 -327 -314 -538 -517 -210 -203 -385 -367
-388 -365 -6 7 -74 322 -74 344 0 16 18 17 213 12 230 -6 228 2 -7 22 -82 7
-142 16 -135 20 8 4 80 26 161 50 81 24 147 45 145 46 -2 2 -78 -11 -170 -28
-91 -18 -169 -29 -172 -26 -4 3 26 70 65 148 39 78 69 144 67 146 -2 2 -37
-50 -78 -116 -41 -66 -77 -120 -81 -120 -5 0 -9 62 -10 138 -1 115 -2 127 -8
72 -4 -36 -8 -96 -9 -135 -1 -38 -4 -80 -7 -93 -6 -23 -7 -22 -21 5 -60 116
-216 403 -218 403 -5 0 8 -29 109 -254 47 -105 84 -191 82 -193 -2 -3 -91 39
-197 93 -107 53 -191 93 -187 89 3 -3 91 -55 194 -115 109 -63 182 -111 173
-114 -8 -3 -95 -19 -194 -37 -172 -29 -247 -49 -140 -36 28 4 93 9 145 12 l95
6 -102 -56 c-57 -31 -103 -58 -103 -60 0 -4 58 21 185 80 93 43 155 59 155 40
0 -7 -16 -88 -35 -181 -37 -172 -41 -221 -11 -112 44 162 69 231 76 217 10
-19 82 -290 78 -293 -2 -1 -136 -130 -298 -286 -162 -156 -317 -304 -344 -329
l-48 -46 31 65 c18 36 41 83 52 104 39 77 10 44 -61 -69 -40 -63 -76 -118 -81
-121 -5 -3 -10 59 -11 138 l-1 143 -10 -157 c-5 -87 -12 -158 -16 -158 -3 0
-57 97 -119 215 -156 294 -157 290 -8 -40 47 -104 86 -194 86 -198 0 -5 -88
37 -195 92 -108 56 -199 101 -203 101 -4 0 40 -28 98 -62 301 -175 294 -171
274 -178 -10 -4 -95 -20 -188 -35 -93 -16 -164 -31 -157 -33 7 -2 64 1 128 7
64 7 118 10 120 7 2 -2 -39 -27 -91 -56 -53 -28 -96 -53 -96 -56 0 -4 25 7
196 85 96 43 134 51 134 26 0 -8 -14 -80 -30 -161 -17 -80 -29 -151 -28 -156
2 -6 21 51 42 127 23 80 42 131 46 123 4 -7 32 -102 61 -211 30 -108 55 -193
57 -189 1 5 -20 111 -48 235 -27 125 -50 231 -50 237 0 6 59 10 159 10 l159 0
132 -77 c102 -59 128 -78 114 -83 -11 -4 -95 -20 -189 -36 -183 -31 -191 -42
-18 -25 58 6 108 9 110 7 2 -2 -39 -27 -91 -56 -53 -28 -96 -53 -96 -56 0 -4
25 7 196 85 97 43 134 51 134 26 0 -8 -14 -78 -30 -156 -17 -78 -29 -147 -27
-152 1 -5 20 50 42 123 45 154 37 160 99 -75 l37 -140 -124 -237 c-68 -131
-127 -241 -130 -245 -4 -4 -21 9 -38 28 l-30 34 25 -40 c14 -22 26 -48 26 -58
0 -19 -4 -20 -55 -3 -11 4 -6 -1 10 -11 20 -11 30 -24 27 -35 -3 -17 -29 -23
-127 -31 -22 -2 -5 -4 38 -5 52 -1 77 -6 77 -14 0 -9 3 -9 12 0 7 7 23 12 38
12 25 -1 25 -1 -10 -33 -19 -17 -55 -49 -80 -71 -43 -37 -44 -38 -5 -10 22 15
60 43 84 61 24 18 47 33 51 33 5 0 0 -33 -11 -72 -23 -91 -23 -121 1 -48 18
55 25 54 33 -5 2 -16 5 7 6 53 0 45 4 82 7 82 4 0 34 -19 68 -43 81 -58 100
-67 51 -26 -88 75 -85 71 -45 65 19 -3 60 -8 90 -10 39 -4 26 1 -45 16 -55 11
-102 22 -104 24 -4 4 12 47 53 137 33 74 25 74 -13 0 -49 -95 -53 -96 -45 -18
6 61 18 92 91 238 46 92 88 165 93 162 6 -3 9 4 8 17 -1 13 49 122 113 245
l114 223 50 2 50 2 -47 3 -48 4 150 298 149 298 102 7 c56 4 103 5 106 2 2 -2
-32 -34 -76 -72 -45 -37 -81 -69 -81 -71 0 -1 39 26 87 62 48 35 89 63 90 61
2 -2 -6 -41 -17 -86 -23 -98 -19 -118 7 -34 l17 59 7 -40 c5 -33 6 -28 8 31 0
39 4 73 7 77 8 7 113 -64 114 -77 0 -4 -72 -285 -161 -623 -151 -581 -159
-616 -144 -639 14 -22 5 -63 -171 -736 -102 -392 -255 -980 -340 -1307 -85
-326 -152 -596 -149 -599 3 -3 8 -3 11 0 3 3 72 264 154 579 83 316 163 626
180 689 17 63 102 392 190 730 88 338 164 616 169 618 36 12 50 58 276 927
198 758 287 1096 379 1440 24 88 17 26 -19 -169 -37 -200 -40 -220 -26 -196 5
8 28 132 52 275 23 143 46 261 49 263 4 1 5 13 3 26 -3 13 30 155 72 317 97
373 116 439 127 439 5 0 8 8 7 18 -4 28 10 95 63 297 27 104 54 193 59 196 5
3 7 13 3 22 -4 11 0 19 10 23 9 3 13 11 10 16 -4 6 0 14 7 19 10 7 11 11 2 17
-13 8 -6 62 8 62 5 0 9 12 9 26 0 16 4 23 11 18 9 -5 10 1 5 21 -5 20 -2 33
13 49 11 11 22 39 24 61 5 47 16 77 31 87 7 5 4 8 -6 8 -10 0 -18 5 -18 10 0
6 5 10 11 10 6 0 9 9 6 20 -4 15 0 20 14 20 16 0 19 6 16 35 -2 19 -6 37 -9
41 -8 7 14 77 26 85 5 4 6 16 3 28 -3 12 2 30 12 43 10 13 16 29 14 36 -3 6 4
12 14 13 10 0 13 3 6 6 -20 7 -16 37 26 203 113 449 136 530 151 530 4 0 5 10
3 23 -2 12 4 56 15 97 l18 75 75 6 c62 4 66 6 24 7 -82 4 -94 9 -85 42 14 50
29 68 62 76 32 7 32 8 8 14 -14 3 -27 3 -28 -2 -2 -4 -7 -6 -12 -3 -4 2 5 51
21 107 101 372 128 493 115 513 -17 27 -58 31 -77 8z m-193 -699 c-3 -9 -6
-20 -6 -25 0 -10 -53 -12 -89 -2 -21 5 -17 8 30 24 69 22 72 22 65 3z m-32
-103 c-2 -50 -31 -136 -50 -151 -7 -7 -14 -21 -14 -31 0 -11 -7 -17 -19 -16
-15 1 -22 17 -36 84 -10 49 -15 97 -11 118 l7 35 63 0 62 0 -2 -39z m-116
-222 c32 -117 32 -134 -7 -244 -25 -71 -53 -129 -64 -134 -5 -1 -1 -11 8 -21
14 -15 15 -25 7 -52 -6 -18 -18 -67 -28 -108 -20 -89 -30 -110 -50 -110 -8 0
-12 -4 -9 -10 3 -5 1 -10 -5 -10 -12 0 -10 -59 2 -66 4 -3 2 -15 -6 -27 -8
-12 -12 -31 -10 -42 2 -11 0 -29 -5 -40 -28 -67 -38 -107 -44 -174 -2 -27 -19
-37 -40 -24 -11 7 -7 42 23 193 20 102 58 295 84 430 26 135 61 312 77 393 16
81 29 151 29 154 0 20 12 -14 38 -108z m48 -6 c-3 -8 -7 -29 -7 -46 l-1 -32
-8 30 c-13 53 -12 75 6 68 8 -3 13 -12 10 -20z m-321 -1012 c-4 -27 -12 -41
-22 -41 -10 0 -13 5 -8 18 4 9 12 30 17 45 14 39 21 27 13 -22z m39 -76 c-5
-12 -10 -13 -20 -4 -19 15 -18 19 6 19 13 0 18 -5 14 -15z m-18 -26 c3 -6 -2
-28 -11 -50 -15 -31 -15 -41 -5 -54 10 -12 6 -33 -25 -115 -21 -55 -40 -99
-41 -97 -2 1 3 32 10 67 8 36 21 109 31 163 16 92 25 111 41 86z m-73 -346
c-7 -3 -10 -10 -7 -16 2 -7 -2 -21 -11 -32 -9 -12 -13 -14 -11 -5 2 8 7 28 10
43 4 18 11 25 18 21 9 -6 9 -9 1 -11z m-291 -1145 c-16 -63 -30 -98 -39 -98
-7 0 -13 4 -13 10 0 13 72 192 75 188 2 -2 -8 -47 -23 -100z m-134 -54 c-12
-11 -47 16 -41 32 5 14 9 13 26 -5 12 -11 18 -23 15 -27z m-15 -11 l32 -18
-44 -3 c-50 -4 -59 1 -41 23 15 19 14 19 53 -2z m7 -52 c0 -5 -24 -30 -52 -56
-36 -33 -41 -39 -15 -21 20 15 37 25 37 22 0 -6 -461 -894 -537 -1033 -24 -46
-49 -83 -54 -83 -6 0 -7 -5 -4 -10 5 -9 -213 -440 -234 -463 -8 -8 -323 -69
-328 -63 -2 2 18 51 45 108 47 100 268 440 876 1346 l176 262 45 0 c25 0 45
-4 45 -9z m31 -53 c-6 -24 -60 -160 -121 -301 -60 -141 -110 -264 -110 -273 0
-10 -38 -111 -85 -225 -80 -195 -107 -281 -69 -219 l15 25 -5 -34 c-4 -19 -8
-37 -11 -39 -3 -3 -22 14 -43 38 -62 74 -74 86 -66 70 4 -8 23 -37 43 -64 38
-54 35 -55 -41 -22 -58 25 -45 10 20 -23 l57 -29 -45 -5 c-100 -13 -151 -16
-148 -9 12 26 287 569 416 822 132 261 185 350 200 336 1 -2 -2 -23 -7 -48z
m66 41 c7 -7 7 -22 -2 -52 -7 -23 -74 -283 -150 -577 -76 -294 -139 -536 -141
-538 -3 -5 -101 10 -113 18 -9 5 -2 29 24 85 19 43 34 80 32 82 -2 2 -19 -24
-36 -58 -18 -33 -35 -59 -37 -57 -1 2 1 34 6 71 7 49 59 190 187 514 149 375
179 443 184 418 5 -24 7 -19 8 22 2 76 13 97 38 72z m100 -111 c-3 -7 -5 -2
-5 12 0 14 2 19 5 13 2 -7 2 -19 0 -25z m-405 -1074 c7 -7 -2 -44 -11 -44 -3
0 -19 11 -36 25 l-30 24 36 1 c20 0 38 -3 41 -6z m-687 -524 l-26 -52 -87 6
c-172 14 -172 14 -11 61 79 23 145 41 147 40 2 -2 -9 -26 -23 -55z m-45 -77
c0 -5 -45 -93 -99 -197 -70 -134 -100 -183 -104 -170 -9 30 -77 351 -77 363 0
7 47 11 140 11 77 0 140 -3 140 -7z m-384 -860 c-3 -10 -10 -38 -16 -62 -8
-32 -14 -41 -23 -32 -8 8 -4 24 13 61 23 50 36 65 26 33z m-61 -123 c3 -5 1
-10 -4 -10 -6 0 -11 5 -11 10 0 6 2 10 4 10 3 0 8 -4 11 -10z"/>
<path d="M9380 9515 c0 -12 190 -355 197 -355 2 0 -11 28 -30 63 -19 34 -58
107 -87 162 -58 109 -80 145 -80 130z"/>
<path d="M8988 9433 c7 -3 16 -2 19 1 4 3 -2 6 -13 5 -11 0 -14 -3 -6 -6z"/>
<path d="M2568 9423 c7 -3 16 -2 19 1 4 3 -2 6 -13 5 -11 0 -14 -3 -6 -6z"/>
<path d="M5786 9403 c-3 -10 -10 -46 -17 -80 -6 -35 -15 -63 -19 -63 -4 0 -29
27 -55 60 -26 33 -50 60 -53 60 -5 0 21 -42 55 -87 28 -39 28 -39 -37 -13 -68
27 -63 15 8 -17 57 -26 57 -27 27 -34 -16 -3 -57 -8 -90 -9 -33 -1 -73 -6 -90
-10 -17 -5 20 -7 90 -4 l120 5 -75 -72 c-41 -40 -66 -66 -55 -57 42 32 49 31
24 -3 -14 -18 -79 -108 -145 -199 l-119 -165 -6 35 c-6 34 -6 34 -8 -9 -1 -34
-10 -58 -38 -98 -20 -29 -39 -53 -42 -53 -3 0 -44 72 -91 159 -46 88 -86 158
-87 157 -2 -1 31 -78 72 -169 41 -92 76 -171 77 -176 2 -6 -6 -23 -16 -40
l-20 -29 -158 79 c-87 44 -158 77 -158 75 0 -2 65 -42 145 -88 80 -45 145 -87
145 -91 0 -5 -12 -26 -27 -47 -26 -36 -34 -40 -98 -50 -38 -7 -97 -18 -130
-26 l-60 -13 50 4 c28 3 81 7 119 11 l69 7 -22 -31 c-12 -17 -40 -41 -61 -53
-40 -23 -50 -40 -11 -19 12 6 21 8 21 6 0 -5 -902 -1255 -932 -1293 -6 -7 -8
-13 -5 -13 3 0 229 301 502 669 l497 669 79 36 c144 66 174 58 95 -24 -24 -25
-194 -227 -377 -450 -454 -552 -808 -980 -832 -1007 -11 -13 -18 -23 -15 -23
3 0 77 84 164 188 87 103 335 394 549 647 215 253 424 499 465 547 40 48 75
87 76 85 1 -1 -9 -54 -22 -116 -13 -63 -23 -119 -21 -124 2 -6 20 50 41 122
21 72 40 130 42 129 1 -2 28 -95 59 -208 31 -113 59 -207 62 -210 3 -3 3 9 -1
25 -20 82 -96 440 -96 452 0 10 44 13 198 15 l197 3 -162 14 c-90 8 -163 17
-163 20 0 3 69 26 154 51 85 25 153 46 151 48 -1 1 -78 -11 -169 -28 -92 -18
-170 -30 -172 -27 -2 2 27 70 65 151 39 80 68 146 67 146 -2 0 -36 -52 -76
-115 -40 -63 -76 -118 -81 -121 -5 -3 -9 26 -9 65 l0 70 176 237 c97 131 186
253 197 271 11 19 21 32 23 31 2 -2 -6 -37 -16 -78 -26 -98 -24 -120 3 -45
l22 60 6 -45 c5 -38 6 -34 7 31 1 42 5 78 8 82 4 3 36 -14 73 -39 l66 -46 -50
46 c-42 40 -46 46 -25 42 58 -12 173 -26 177 -23 2 3 -25 10 -59 16 -168 31
-170 32 -165 49 3 10 21 53 41 97 38 86 34 84 -20 -10 l-34 -60 6 55 c3 30 7
65 10 78 5 26 -2 30 -10 5z m-456 -853 c0 -38 -4 -70 -8 -70 -5 0 -16 16 -25
35 -16 34 -16 37 6 70 12 19 23 35 25 35 1 0 2 -31 2 -70z m-62 -65 c14 -31
15 -35 4 -35 -20 0 -43 27 -36 43 9 24 19 21 32 -8z m-24 -54 c32 -21 29 -23
-48 -36 l-38 -6 22 30 c25 36 26 37 64 12z m-98 -86 c-11 -8 -22 -12 -25 -9
-6 6 19 24 34 24 6 -1 1 -7 -9 -15z"/>
<path d="M9752 9340 c0 -19 2 -27 5 -17 2 9 2 25 0 35 -3 9 -5 1 -5 -18z"/>
<path d="M2384 9316 c4 -22 38 -108 76 -190 37 -83 127 -283 199 -443 72 -161
190 -425 262 -585 260 -580 357 -796 439 -980 46 -103 85 -186 87 -184 2 2
-84 205 -191 452 -106 247 -251 582 -321 744 -70 162 -142 329 -160 370 l-32
75 91 6 c50 4 93 4 96 2 3 -3 -4 -11 -14 -19 -14 -10 -23 -11 -33 -3 -10 9
-13 6 -13 -12 0 -13 -14 -35 -32 -52 l-33 -29 33 22 c18 12 35 20 37 18 3 -3
16 -33 29 -69 13 -35 48 -129 79 -209 72 -191 165 -435 332 -875 120 -319 145
-380 145 -364 0 2 -119 330 -263 729 -249 682 -263 726 -253 759 l11 36 6 -30
c5 -23 7 -17 8 26 0 31 4 58 7 62 4 3 21 -4 38 -17 17 -13 45 -31 61 -41 28
-17 28 -16 -5 13 -19 17 -38 31 -42 32 -5 0 -8 4 -8 8 0 5 26 5 57 0 31 -5 64
-7 72 -5 9 1 -21 9 -67 16 -45 8 -85 17 -87 22 -3 4 8 38 25 75 39 87 38 93
-5 19 l-35 -60 5 60 4 60 -16 -65 -16 -65 -49 55 -50 55 31 -47 c17 -26 31
-49 31 -52 0 -4 -16 1 -36 9 -55 23 -55 17 -1 -11 27 -14 47 -27 45 -28 -1 -2
-46 -6 -98 -9 l-95 -7 -22 53 c-110 258 -267 618 -281 645 -9 18 -26 41 -36
50 -18 16 -19 16 -12 -22z m555 -808 l-12 -43 -14 34 c-14 33 -13 36 9 52 29
22 33 13 17 -43z"/>
<path d="M10056 9305 c-3 -9 -6 -22 -5 -28 0 -7 5 -1 10 12 5 13 8 26 5 28 -2
2 -6 -3 -10 -12z"/>
<path d="M9762 9275 c0 -16 2 -22 5 -12 2 9 2 23 0 30 -3 6 -5 -1 -5 -18z"/>
<path d="M9792 9250 c0 -19 2 -27 5 -17 2 9 2 25 0 35 -3 9 -5 1 -5 -18z"/>
<path d="M9911 9264 c0 -11 3 -14 6 -6 3 7 2 16 -1 19 -3 4 -6 -2 -5 -13z"/>
<path d="M9801 9154 c0 -11 3 -14 6 -6 3 7 2 16 -1 19 -3 4 -6 -2 -5 -13z"/>
<path d="M7961 9099 c-1 -4 6 -26 14 -49 20 -58 19 -67 -7 -44 -13 11 -32 26
-43 33 -11 7 -5 0 13 -16 17 -16 32 -31 32 -34 0 -2 -28 -3 -62 -2 l-63 2 75
-21 74 -22 -69 -32 c-84 -39 -81 -43 9 -9 36 14 66 22 66 19 0 -3 -16 -33 -35
-65 -43 -74 -45 -89 -4 -29 l31 45 -6 -40 c-6 -46 5 -21 25 55 l11 45 45 -50
c25 -28 36 -36 26 -20 -11 17 -23 35 -27 42 -3 7 23 -1 58 -17 96 -44 94 -36
-4 15 -47 24 -82 44 -78 44 24 2 1032 -147 1225 -180 34 -6 68 -9 75 -7 7 3
-5 8 -27 11 -22 4 -204 33 -405 66 -201 32 -464 73 -585 91 -121 18 -230 34
-242 37 -22 5 -20 8 24 62 l47 56 -53 -50 c-30 -27 -51 -43 -48 -35 3 8 12 32
21 53 25 57 10 44 -23 -20 l-29 -58 -30 65 c-17 36 -31 62 -31 59z"/>
<path d="M963 9070 c3 -8 50 -115 105 -237 55 -123 98 -223 96 -223 -2 0 -90
43 -194 95 -105 52 -190 93 -190 91 0 -2 84 -52 186 -111 102 -59 182 -111
177 -115 -4 -4 -95 -23 -202 -41 -107 -18 -190 -34 -185 -36 5 -1 72 3 149 11
77 7 142 12 143 10 2 -1 -40 -26 -93 -54 -53 -29 -94 -54 -92 -56 2 -2 52 18
110 46 112 52 204 86 213 78 4 -5 -11 -94 -22 -126 -3 -10 -17 -6 -53 15 -28
15 -53 24 -57 20 -4 -4 16 -31 44 -60 l53 -53 -16 -68 c-21 -88 -13 -97 10
-11 10 36 21 65 26 65 4 0 29 -18 57 -39 47 -37 50 -43 73 -130 27 -104 38
-108 14 -6 -8 38 -14 70 -12 72 2 2 184 -135 404 -303 l401 -306 -81 -129 -82
-128 -5 127 c-5 132 -19 145 -21 19 -1 -40 -4 -97 -7 -127 l-7 -55 -114 213
c-153 286 -155 284 -21 -13 40 -88 79 -175 86 -193 l14 -32 -202 101 c-112 55
-198 97 -193 92 6 -5 91 -56 190 -113 99 -57 182 -105 184 -107 11 -8 -19 -16
-180 -44 -96 -16 -178 -32 -184 -34 -10 -5 99 1 210 11 l60 5 -89 -50 -89 -51
-336 111 c-185 61 -338 115 -341 119 -3 4 -32 13 -65 20 -33 7 -70 16 -82 21
l-22 8 29 67 c39 87 38 93 -5 19 -22 -37 -34 -50 -31 -35 3 14 7 45 10 70 l4
45 -13 -45 c-7 -25 -16 -58 -20 -74 l-6 -29 -32 38 c-69 84 -86 94 -32 20 38
-53 38 -55 -1 -39 -20 8 -38 13 -41 10 -2 -2 5 -7 17 -11 12 -4 19 -13 18 -23
-2 -13 -18 -18 -63 -23 -59 -5 -59 -6 23 -7 45 -1 82 -6 82 -10 0 -4 -22 -25
-49 -45 -27 -21 -55 -45 -63 -54 -7 -9 19 7 57 36 79 60 85 56 61 -35 -19 -71
-13 -84 8 -18 8 29 16 41 17 29 1 -11 5 0 8 25 7 54 22 55 91 7 33 -22 40 -25
26 -9 l-19 22 29 -10 c26 -8 415 -130 857 -269 l149 -46 -5 -30 c-16 -88 -15
-95 3 -38 l20 62 48 -14 c26 -8 50 -15 53 -15 4 0 19 -48 35 -107 33 -125 44
-125 14 1 -11 48 -20 88 -20 90 0 4 3 3 375 -114 616 -194 699 -220 703 -215
2 2 -54 22 -125 45 -354 114 -949 313 -955 319 -7 6 -49 193 -52 229 -1 11 41
13 207 12 114 0 207 1 207 3 0 3 -65 10 -145 17 -233 20 -232 19 -57 70 83 24
150 45 148 47 -2 2 -77 -10 -167 -26 -89 -17 -164 -29 -165 -28 -1 1 31 71 72
155 53 111 77 151 86 146 19 -11 681 -515 694 -528 8 -8 8 -25 1 -56 l-9 -45
-51 55 c-50 55 -54 53 -11 -7 32 -42 30 -46 -12 -28 -55 23 -55 17 1 -13 l50
-26 -80 -8 c-129 -12 -137 -16 -27 -14 56 0 102 -1 102 -4 0 -3 -27 -27 -60
-53 -65 -53 -83 -76 -25 -33 19 14 51 38 70 52 40 30 40 31 20 -55 -18 -76
-14 -92 6 -24 l14 48 6 -40 c5 -33 6 -29 8 28 1 50 5 67 15 67 8 0 16 -6 19
-14 3 -7 56 -42 119 -76 62 -35 128 -72 146 -83 17 -10 32 -17 32 -14 0 3 -51
35 -112 71 -62 36 -126 78 -143 92 l-30 26 70 -5 70 -5 -82 16 c-46 9 -83 20
-83 24 0 5 7 24 15 44 17 41 18 40 108 -31 34 -27 55 -50 51 -57 -4 -7 -3 -8
5 -4 13 8 63 -27 224 -157 54 -43 100 -77 102 -75 2 2 -28 29 -66 60 -113 91
-390 349 -384 358 3 4 -1 7 -9 6 -7 0 -181 152 -387 339 -206 187 -554 504
-774 704 -220 200 -411 374 -425 388 l-25 25 195 -5 c222 -5 217 4 -12 23 -87
7 -155 16 -152 19 3 3 76 27 162 53 86 26 153 47 149 47 -5 1 -80 -12 -169
-29 -88 -16 -166 -30 -174 -30 -9 0 11 50 62 151 41 83 74 153 72 154 -2 2
-39 -53 -83 -123 l-80 -126 -3 122 c-2 76 -6 121 -12 117 -6 -3 -10 -32 -10
-64 0 -32 -3 -93 -7 -135 l-6 -77 -42 78 c-143 263 -206 376 -202 363z m1172
-1360 c407 -360 751 -664 765 -677 14 -13 55 -49 92 -81 36 -31 65 -58 63 -61
-4 -3 -147 110 -178 141 -10 10 -22 18 -27 18 -6 0 -10 7 -10 16 0 8 -4 13 -9
10 -4 -3 -354 268 -777 602 l-769 607 -17 70 c-9 39 -20 88 -24 110 l-6 39 78
-70 c44 -39 412 -365 819 -724z m-906 693 c7 -27 14 -56 17 -65 7 -24 -6 -22
-37 6 -25 22 -26 26 -16 65 6 22 14 41 18 41 4 0 12 -21 18 -47z m661 -1206
c0 -8 -41 -192 -44 -194 -1 -2 -58 16 -125 38 -67 23 -119 45 -114 50 18 18
230 108 256 109 15 0 27 -1 27 -3z m58 -225 c-11 -5 -78 18 -78 26 0 8 28 101
36 122 4 9 16 -19 28 -65 13 -44 19 -81 14 -83z m912 51 c-1 -5 -7 -19 -15
-33 l-14 -25 -1 26 c0 14 3 29 7 32 9 9 23 9 23 0z"/>
<path d="M10314 9048 l-19 -23 23 19 c21 18 27 26 19 26 -2 0 -12 -10 -23 -22z"/>
<path d="M9970 9039 c-7 -11 -10 -23 -7 -25 2 -2 9 7 15 21 14 30 7 33 -8 4z"/>
<path d="M9354 9016 c1 -8 5 -18 8 -22 4 -3 5 1 4 10 -1 8 -5 18 -8 22 -4 3
-5 -1 -4 -10z"/>
<path d="M10954 8965 l-29 -55 -27 53 c-31 59 -35 58 -13 -2 l15 -42 -43 32
-42 33 40 -42 c44 -47 44 -47 -45 -27 -98 22 -106 16 -12 -9 45 -13 85 -25 87
-28 13 -13 -82 -37 -242 -63 -95 -15 -173 -32 -173 -37 0 -10 89 0 105 12 12
9 175 33 182 27 2 -3 25 2 50 9 60 18 87 18 80 0 -3 -8 -2 -27 2 -43 7 -27 8
-26 19 19 7 26 16 49 20 52 5 3 26 -17 46 -44 52 -69 62 -67 14 2 -25 36 -23
41 10 24 46 -24 103 -46 98 -38 -2 4 -36 23 -75 42 -39 18 -71 37 -71 42 0 4
17 27 37 50 65 75 69 85 14 33 l-53 -50 17 40 c9 22 19 46 22 53 3 6 3 12 0
12 -2 0 -17 -25 -33 -55z"/>
<path d="M9385 8991 c-3 -5 -2 -12 3 -15 5 -3 9 1 9 9 0 17 -3 19 -12 6z"/>
<path d="M9756 8945 c-9 -9 -16 -22 -16 -29 0 -13 26 -117 131 -521 58 -223
83 -351 213 -1100 49 -279 67 -370 77 -379 14 -15 11 21 -10 130 -11 55 -34
173 -51 264 -64 338 -72 378 -96 503 -14 71 -24 131 -21 133 2 3 30 -96 60
-218 31 -123 86 -338 122 -478 37 -140 147 -570 246 -955 99 -385 200 -776
224 -870 24 -93 121 -469 215 -835 94 -366 195 -759 225 -875 30 -115 99 -385
154 -600 127 -495 117 -460 144 -472 19 -9 28 -30 50 -114 38 -145 266 -1033
377 -1464 227 -885 270 -1048 275 -1053 20 -20 2 61 -106 480 -67 260 -161
626 -209 813 -48 187 -145 562 -215 834 -109 427 -125 497 -115 517 8 14 10
38 7 61 -4 21 -65 263 -136 538 -70 275 -170 662 -221 860 -51 198 -150 583
-220 855 -70 272 -169 657 -220 855 -142 554 -334 1299 -475 1845 -71 272
-130 510 -131 527 -2 18 -8 42 -14 53 -6 11 -14 39 -19 62 -17 86 -152 594
-164 618 -15 30 -58 38 -81 15z"/>
<path d="M10460 8920 c-18 -12 -2 -12 25 0 13 6 15 9 5 9 -8 0 -22 -4 -30 -9z"/>
<path d="M10855 8768 l-16 -33 20 25 c20 24 26 40 16 40 -2 0 -12 -15 -20 -32z"/>
<path d="M11360 8789 c0 -4 6 -25 14 -47 17 -48 17 -82 0 -82 -7 0 -45 7 -85
15 -103 22 -96 12 11 -16 50 -12 87 -26 83 -30 -5 -4 -190 2 -413 12 -223 11
-416 18 -430 16 -14 -1 34 -6 105 -10 72 -4 198 -12 280 -17 83 -5 206 -12
274 -16 114 -6 123 -8 105 -22 -19 -14 -19 -15 1 -7 33 11 85 18 85 11 0 -4
-12 -28 -26 -54 l-26 -47 25 29 c22 26 25 27 29 10 3 -11 7 -2 12 24 10 53 28
54 73 5 34 -37 34 -37 13 -5 -12 18 -20 35 -17 38 3 3 24 -4 47 -16 23 -12 44
-19 47 -16 3 2 -25 20 -61 38 l-66 33 43 50 c69 81 74 93 18 40 l-53 -50 17
40 c37 88 32 89 -14 4 l-30 -54 -30 65 c-17 36 -30 62 -31 59z"/>
<path d="M10390 8770 c0 -5 5 -10 10 -10 6 0 10 5 10 10 0 6 -4 10 -10 10 -5
0 -10 -4 -10 -10z"/>
<path d="M10440 8769 c0 -5 5 -7 10 -4 6 3 10 8 10 11 0 2 -4 4 -10 4 -5 0
-10 -5 -10 -11z"/>
<path d="M8605 8704 c-16 -30 -32 -54 -35 -54 -3 0 -15 22 -28 48 -12 26 -20
39 -17 29 3 -11 8 -31 12 -45 l6 -27 -39 29 -39 29 40 -43 c29 -31 35 -41 20
-37 -45 12 -137 28 -141 25 -2 -2 30 -13 71 -23 41 -10 75 -22 75 -26 0 -3
-25 -17 -55 -29 -31 -13 -54 -24 -52 -27 3 -2 28 5 56 17 28 11 56 20 62 20 6
0 -6 -29 -26 -65 -39 -70 -42 -89 -4 -28 18 29 24 33 29 19 4 -12 9 -3 18 29
6 25 16 45 20 45 4 0 25 -22 46 -50 21 -27 40 -50 43 -50 6 0 -5 18 -35 58
-13 17 -22 32 -19 32 3 0 35 -13 71 -30 36 -16 66 -27 66 -25 0 3 -37 24 -82
47 l-83 42 40 7 c22 5 150 11 284 15 134 3 284 10 335 14 l91 7 -115 2 c-63 0
-222 -4 -353 -10 -131 -6 -241 -9 -243 -6 -3 3 11 25 32 49 l38 43 -47 -45
c-26 -24 -47 -41 -47 -38 0 4 9 28 20 54 28 65 21 64 -15 -2z"/>
<path d="M9458 8743 c7 -3 16 -2 19 1 4 3 -2 6 -13 5 -11 0 -14 -3 -6 -6z"/>
<path d="M11342 8705 c15 -16 30 -26 33 -23 4 3 -9 16 -27 28 l-33 23 27 -28z"/>
<path d="M8071 8684 c0 -11 3 -14 6 -6 3 7 2 16 -1 19 -3 4 -6 -2 -5 -13z"/>
<path d="M9348 8663 c6 -2 18 -2 25 0 6 3 1 5 -13 5 -14 0 -19 -2 -12 -5z"/>
<path d="M10428 8663 c6 -2 18 -2 25 0 6 3 1 5 -13 5 -14 0 -19 -2 -12 -5z"/>
<path d="M8080 8646 c0 -14 43 -318 56 -395 5 -34 2 -32 -106 70 -208 194
-226 204 -68 39 86 -91 155 -166 154 -168 -2 -1 -88 7 -191 18 -104 11 -190
18 -192 17 -1 -2 55 -14 125 -27 70 -13 131 -26 135 -30 4 -4 -42 -17 -103
-30 -61 -12 -109 -24 -107 -27 2 -2 63 6 135 17 144 22 212 25 212 10 0 -6
-34 -76 -77 -158 -42 -81 -72 -142 -66 -137 5 6 40 58 77 118 38 59 70 107 72
107 2 0 4 -67 4 -148 l0 -148 -399 -212 c-219 -117 -403 -212 -407 -212 -5 0
12 21 36 48 143 151 141 153 -16 14 -45 -40 -84 -72 -86 -72 -3 0 10 55 28
122 19 67 32 123 30 125 -2 3 -20 -44 -40 -104 -21 -59 -43 -121 -50 -138 -13
-30 -13 -30 -29 43 -9 40 -31 142 -49 227 -18 85 -34 152 -36 150 -2 -2 10
-101 28 -220 17 -119 30 -221 28 -227 -2 -5 -73 54 -158 133 -176 164 -168
144 17 -43 70 -71 124 -130 121 -133 -2 -3 -87 4 -188 15 -101 11 -185 18
-187 16 -2 -2 51 -14 119 -26 68 -12 129 -25 135 -29 7 -4 -29 -15 -80 -25
-118 -25 -97 -32 31 -12 100 16 192 21 192 10 0 -3 -34 -70 -76 -150 -42 -79
-74 -144 -71 -144 3 0 36 49 73 110 38 60 71 110 74 110 3 0 4 -62 2 -137 -6
-269 2 -316 16 -98 7 110 15 223 18 251 l6 51 148 -46 148 -46 97 -102 97
-103 -35 0 c-19 0 -98 7 -176 16 -78 8 -147 14 -153 12 -6 -2 48 -15 121 -28
73 -13 126 -27 119 -31 -7 -4 -53 -15 -103 -25 -129 -26 -89 -29 67 -5 116 18
178 19 178 4 0 -2 -19 -39 -41 -81 -23 -42 -59 -110 -81 -149 -21 -40 -37 -73
-34 -73 2 0 37 52 78 115 40 63 75 115 78 115 3 0 3 -76 0 -169 l-5 -168 -174
-184 c-96 -101 -178 -185 -183 -187 -4 -2 -12 8 -18 22 -14 38 -20 31 -7 -9
14 -48 -3 -67 -35 -39 l-23 19 19 -22 c29 -34 14 -57 -32 -50 -95 16 -103 16
-52 1 30 -8 59 -20 65 -25 5 -5 24 -9 42 -9 18 0 33 -3 33 -7 0 -5 -36 -23
-80 -42 -44 -19 -78 -36 -76 -38 2 -2 38 10 80 27 42 16 81 30 87 30 6 0 2
-15 -9 -32 -47 -79 -74 -128 -69 -128 3 0 19 23 37 50 18 28 34 50 36 50 2 0
1 -15 -1 -32 -3 -18 4 -5 15 30 12 34 25 62 30 62 6 0 10 -3 10 -7 0 -5 21
-30 46 -58 l45 -50 -30 47 c-17 26 -31 49 -31 52 0 3 34 -11 76 -30 109 -49
105 -41 -9 17 l-98 50 52 62 c84 99 87 106 21 42 -66 -63 -66 -62 -25 32 10
23 72 100 138 172 94 102 121 126 127 113 5 -13 7 -11 7 8 1 18 47 75 166 202
164 176 165 177 197 168 41 -12 47 -6 9 10 l-31 12 187 202 c102 110 200 215
217 233 l31 32 85 -21 c47 -11 89 -24 93 -28 4 -4 -26 -22 -68 -40 -41 -18
-74 -34 -72 -36 2 -2 39 10 82 26 43 17 79 29 81 28 1 -2 -17 -39 -42 -83 -24
-44 -34 -67 -21 -51 59 76 54 73 50 35 -2 -21 4 -11 16 29 10 34 21 65 24 68
3 3 29 -24 58 -60 29 -36 54 -66 56 -66 2 0 -12 23 -31 52 -20 29 -34 54 -32
56 2 2 34 -11 71 -27 98 -45 94 -37 -7 15 -49 24 -88 49 -88 55 0 6 26 41 57
77 l57 67 -57 -55 c-31 -30 -57 -51 -57 -47 0 4 13 35 29 70 39 85 581 789
581 756 1 -16 7 -7 18 25 9 27 22 51 27 53 6 2 28 -18 50 -43 l39 -47 -37 -68
c-20 -37 -37 -71 -37 -75 1 -5 10 8 21 29 11 22 23 37 25 34 3 -3 -31 -78 -76
-167 -45 -89 -80 -166 -78 -172 2 -6 53 93 112 218 60 126 115 234 122 240 8
6 11 13 8 17 -3 3 11 40 30 82 44 96 46 111 4 30 -18 -33 -31 -63 -30 -67 1
-5 -3 -8 -9 -8 -5 0 -8 -4 -4 -9 3 -5 2 -12 -3 -15 -10 -6 -112 40 -112 51 0
4 15 26 33 49 99 124 102 131 28 59 -60 -57 -70 -64 -57 -38 9 18 21 45 26 60
8 24 8 25 -3 9 -6 -10 -21 -32 -32 -49 -27 -42 -38 -43 -53 -5 -6 17 -11 32
-9 33 9 5 197 168 197 171 0 3 -45 -32 -100 -77 -55 -45 -103 -79 -107 -76 -3
4 -11 -3 -18 -16 -6 -12 -18 -21 -27 -21 -9 1 -14 -4 -12 -11 7 -17 -37 -44
-67 -40 -13 1 -16 0 -6 -2 10 -3 17 -8 15 -12 -2 -5 -138 -120 -303 -256 -165
-137 -349 -290 -410 -340 -60 -50 -244 -203 -408 -339 -164 -136 -301 -246
-304 -243 -2 3 7 47 21 98 14 51 24 95 22 96 -2 2 -22 -52 -46 -119 -23 -68
-46 -127 -50 -131 -8 -9 -27 66 -76 300 -15 73 -29 131 -31 129 -3 -2 10 -100
27 -216 17 -117 30 -218 28 -225 -2 -8 -39 21 -88 67 -76 71 -82 79 -55 74
l30 -5 -30 14 c-16 8 -34 14 -40 15 -5 0 -37 25 -70 55 l-60 54 95 2 95 2
-157 15 c-87 8 -158 19 -158 24 0 4 4 8 9 8 5 0 190 99 411 221 222 121 409
223 416 226 10 4 14 -4 15 -23 2 -27 2 -26 8 6 7 39 -67 -4 741 437 217 119
400 220 405 226 13 13 19 15 -340 -176 -170 -91 -323 -171 -340 -179 -16 -7
-34 -17 -40 -21 -14 -12 -419 -226 -422 -223 -2 1 3 80 9 174 8 124 15 172 24
172 7 0 92 -24 191 -54 98 -30 179 -53 181 -52 1 2 -64 29 -145 61 -81 32
-152 62 -157 66 -6 5 56 10 145 10 l154 2 -157 16 c-86 9 -160 19 -163 23 -4
4 39 56 94 116 56 61 101 113 101 117 0 3 -46 -35 -102 -85 -56 -49 -103 -88
-105 -87 -1 2 11 54 28 116 16 62 28 115 27 117 -2 2 -24 -55 -48 -126 -25
-72 -47 -130 -50 -130 -3 0 -25 95 -49 210 -41 195 -51 233 -51 196z m1303
-396 c3 -11 2 -20 -3 -20 -14 0 -32 29 -25 40 9 14 21 5 28 -20z m-3 -35 c12
-15 10 -16 -16 -10 -70 16 -70 16 -49 31 19 14 42 7 65 -21z m-37 -21 c23 -5
25 -9 15 -21 -6 -8 -29 -22 -50 -30 -22 -9 -37 -18 -34 -20 2 -3 14 0 25 7 12
6 21 8 21 5 0 -5 -579 -618 -865 -915 -101 -105 -295 -310 -305 -323 -6 -7
-319 19 -327 27 -9 9 194 214 312 314 1025 868 1150 972 1164 968 9 -3 28 -8
44 -12z m35 -71 c-12 -21 -98 -131 -190 -245 -92 -113 -168 -211 -168 -217 0
-6 -44 -66 -98 -133 -164 -207 -182 -230 -182 -241 0 -5 7 -4 15 3 8 7 15 10
15 7 0 -12 -23 -57 -29 -57 -4 0 -19 29 -35 65 -16 36 -30 64 -32 62 -2 -2 5
-30 16 -61 19 -56 19 -58 1 -45 -73 53 -80 55 -31 9 34 -31 47 -49 35 -46 -11
3 -49 10 -85 17 -36 6 -68 15 -73 18 -4 4 28 45 71 92 436 471 735 790 750
798 35 21 42 12 20 -26z m157 -3 c2 0 6 -7 9 -16 3 -9 2 -12 -5 -9 -6 4 -10 1
-8 -6 6 -47 -24 -26 -62 44 -10 17 -8 17 27 2 20 -8 38 -15 39 -15z m-29 -117
c-8 -15 -15 -25 -16 -21 0 12 23 58 27 54 3 -2 -2 -17 -11 -33z m-2061 -804
c43 -45 45 -45 -70 -2 -95 36 -99 43 -29 43 57 0 62 -2 99 -41z m646 -363
l-42 -43 -102 40 c-56 21 -104 41 -106 43 -2 2 63 4 144 4 l149 0 -43 -44z
m-184 -17 c59 -17 111 -34 115 -38 7 -6 -253 -291 -271 -299 -6 -2 1 158 14
306 5 55 10 72 20 68 8 -3 62 -19 122 -37z m-478 -768 c-22 -39 -39 -53 -39
-30 0 12 53 80 58 74 2 -2 -6 -22 -19 -44z"/>
<path d="M10338 8643 c6 -2 18 -2 25 0 6 3 1 5 -13 5 -14 0 -19 -2 -12 -5z"/>
<path d="M10585 8630 c44 -4 145 -10 225 -13 112 -4 124 -4 55 2 -49 5 -151
11 -225 14 -102 4 -116 3 -55 -3z"/>
<path d="M9178 8523 c7 -3 16 -2 19 1 4 3 -2 6 -13 5 -11 0 -14 -3 -6 -6z"/>
<path d="M10388 8523 c7 -3 16 -2 19 1 4 3 -2 6 -13 5 -11 0 -14 -3 -6 -6z"/>
<path d="M10488 8523 c7 -3 16 -2 19 1 4 3 -2 6 -13 5 -11 0 -14 -3 -6 -6z"/>
<path d="M9070 8499 c-36 -10 -49 -16 -29 -14 41 6 131 33 109 33 -8 0 -44 -8
-80 -19z"/>
<path d="M10521 8516 c4 -4 125 -36 494 -131 99 -26 212 -55 250 -65 39 -10
194 -51 345 -90 151 -39 293 -78 315 -85 22 -8 77 -22 122 -31 45 -10 80 -20
78 -22 -2 -2 -27 -10 -57 -18 -43 -11 -45 -13 -13 -8 22 2 73 8 114 11 l74 6
-56 -106 c-32 -59 -55 -107 -53 -107 3 0 26 35 53 77 l48 78 5 -140 5 -140 9
151 c4 83 11 156 15 162 5 8 47 -1 136 -28 71 -22 130 -38 132 -36 2 1 -44 21
-102 42 -58 21 -105 42 -105 47 0 4 44 8 98 9 l97 1 -107 10 c-60 5 -108 13
-108 18 0 4 26 37 58 71 90 99 93 108 10 34 -43 -38 -78 -67 -78 -65 0 2 9 38
20 79 10 41 17 76 15 78 -2 2 -16 -35 -31 -82 -15 -47 -30 -83 -33 -80 -4 3
-20 69 -38 147 -37 167 -41 160 -13 -24 11 -73 18 -135 16 -137 -3 -2 -42 31
-88 75 -129 122 -143 128 -30 12 56 -57 102 -108 102 -113 0 -13 -64 1 -625
141 -672 167 -1063 263 -1072 263 -3 0 -4 -2 -2 -4z"/>
<path d="M10458 8503 c7 -3 16 -2 19 1 4 3 -2 6 -13 5 -11 0 -14 -3 -6 -6z"/>
<path d="M10491 8496 c8 -8 927 -266 945 -266 18 1 18 1 -1 12 -10 6 -49 19
-85 29 -36 9 -241 65 -456 123 -374 101 -413 111 -403 102z"/>
<path d="M10230 8476 c0 -3 14 -12 30 -21 17 -9 30 -13 30 -11 0 3 -13 12 -30
21 -16 9 -30 13 -30 11z"/>
<path d="M10125 8414 c33 -33 160 -151 283 -263 122 -113 222 -206 222 -208 0
-11 -31 -63 -38 -63 -4 0 -15 21 -26 46 -21 51 -30 54 -16 4 5 -19 8 -35 6
-37 -1 -2 -16 7 -32 19 -26 19 -25 17 6 -16 l35 -38 -35 7 c-19 4 -35 8 -36 9
-20 28 -278 346 -281 346 -3 0 8 -17 24 -37 16 -21 72 -92 123 -158 52 -66 98
-126 104 -134 9 -11 3 -12 -34 -8 l-45 7 49 -15 c27 -7 58 -23 69 -33 20 -20
19 -20 -19 -41 -50 -26 -43 -26 25 -1 55 21 71 20 54 -2 -18 -24 -64 -108 -59
-108 3 0 17 17 32 38 l26 37 -5 -35 c-7 -44 7 -14 23 48 6 23 15 42 20 42 6 0
10 -3 10 -7 1 -5 19 -28 42 -53 l40 -45 -32 49 c-19 27 -27 47 -19 44 8 -4 40
-18 72 -32 84 -38 69 -22 -24 25 l-81 40 28 30 c15 16 31 29 36 29 4 0 366
-334 805 -741 439 -408 815 -753 836 -767 42 -28 56 -24 39 12 -6 14 -303 287
-659 607 -356 321 -730 657 -831 748 l-183 164 23 26 23 26 -25 -22 c-31 -27
-56 -17 -45 18 6 21 6 22 -6 7 -13 -15 -29 -3 -164 119 -251 227 -423 379
-360 317z m519 -515 c-21 -24 -29 -18 -14 10 6 12 16 19 21 15 6 -4 4 -13 -7
-25z m-89 -59 c3 -5 -1 -10 -9 -10 -8 0 -18 5 -21 10 -3 6 1 10 9 10 8 0 18
-4 21 -10z"/>
<path d="M4748 8443 c-9 -10 -63 -108 -121 -218 -110 -211 -663 -1268 -678
-1297 -6 -11 -5 -19 3 -24 7 -4 8 -3 4 4 -4 7 -2 12 4 12 6 0 8 5 5 10 -3 6
-2 10 3 10 15 0 527 933 515 937 -6 2 41 99 104 216 63 117 130 243 150 280
35 70 40 103 11 70z"/>
<path d="M10305 8433 c6 -5 368 -200 805 -433 573 -304 806 -433 835 -461 l40
-39 -35 0 c-19 0 -91 7 -160 15 -180 21 -194 17 -45 -14 l130 -27 -80 -18
c-182 -40 -174 -45 22 -15 75 11 147 18 160 14 23 -5 22 -8 -53 -153 -42 -81
-72 -142 -67 -137 6 6 41 57 77 114 l66 105 1 -215 2 -214 16 237 c9 130 19
239 22 242 3 3 87 -19 186 -49 100 -30 185 -55 190 -55 4 1 -64 30 -152 65
l-160 64 159 0 c88 1 157 4 154 7 -3 3 -77 12 -164 20 -87 8 -161 17 -163 19
-2 3 36 49 85 102 49 54 98 109 109 123 l20 25 -30 -25 c-16 -14 -50 -44 -75
-66 -68 -62 -120 -106 -120 -103 0 2 16 60 34 129 19 69 33 126 32 128 -2 1
-25 -60 -52 -138 -32 -91 -51 -134 -55 -122 -3 9 -26 109 -50 221 -24 112 -45
199 -46 194 -2 -5 10 -97 25 -206 16 -108 26 -197 23 -197 -24 1 -119 72 -213
159 -88 82 -99 90 -48 35 116 -123 116 -122 -20 -51 -69 36 -411 212 -760 392
-349 180 -639 330 -645 333 -7 3 -7 2 0 -5z"/>
<path d="M9589 8373 c-13 -16 -12 -17 4 -4 16 13 21 21 13 21 -2 0 -10 -8 -17
-17z"/>
<path d="M9833 8325 c0 -27 2 -38 4 -22 2 15 2 37 0 50 -2 12 -4 0 -4 -28z"/>
<path d="M10245 8350 c10 -11 20 -20 23 -20 3 0 -3 9 -13 20 -10 11 -20 20
-23 20 -3 0 3 -9 13 -20z"/>
<path d="M10339 8273 c31 -29 60 -53 64 -53 4 0 -9 14 -30 32 -78 65 -88 72
-34 21z"/>
<path d="M9646 8303 c-6 -14 -5 -15 5 -6 7 7 10 15 7 18 -3 3 -9 -2 -12 -12z"/>
<path d="M10140 8306 c0 -2 8 -10 18 -17 15 -13 16 -12 3 4 -13 16 -21 21 -21
13z"/>
<path d="M10185 8250 c10 -11 20 -20 23 -20 3 0 -3 9 -13 20 -10 11 -20 20
-23 20 -3 0 3 -9 13 -20z"/>
<path d="M10057 8203 c4 -11 8 -12 13 -3 6 9 9 9 13 1 4 -8 5 -8 3 0 -1 7 -9
13 -18 15 -11 1 -15 -3 -11 -13z"/>
<path d="M10077 8162 c4 -9 8 -10 12 -3 6 9 111 -202 357 -716 35 -73 60 -133
56 -133 -4 0 -94 182 -201 405 -107 223 -195 404 -197 402 -2 -2 49 -115 112
-253 64 -137 147 -316 185 -397 l68 -149 -42 6 -42 5 42 -12 c47 -13 58 -22
67 -53 5 -17 0 -24 -24 -34 -38 -16 -33 -24 6 -10 24 9 31 8 42 -7 7 -10 12
-30 10 -44 -3 -18 0 -25 7 -22 7 2 109 -206 260 -534 136 -296 257 -553 267
-570 25 -43 42 -43 34 -1 -5 26 -293 636 -477 1012 -47 95 -49 100 -37 140 18
65 25 66 75 11 31 -35 38 -39 21 -15 -13 19 -28 41 -32 47 -4 7 23 -1 59 -17
96 -43 94 -36 -3 13 l-83 43 42 49 c71 83 76 92 20 40 l-53 -50 17 40 c37 88
32 89 -15 4 l-29 -54 -27 63 c-31 70 -42 78 -19 12 21 -61 19 -64 -20 -33 -29
23 -72 102 -234 429 -131 263 -204 401 -214 401 -9 0 -13 -6 -10 -15z m473
-837 c18 -19 20 -25 8 -25 -9 0 -23 11 -32 25 -9 14 -13 25 -8 25 5 0 19 -11
32 -25z m-20 -63 c0 -15 -2 -15 -10 -2 -13 20 -13 33 0 25 6 -3 10 -14 10 -23z
m50 -12 c0 -5 -5 -10 -11 -10 -5 0 -7 5 -4 10 3 6 8 10 11 10 2 0 4 -4 4 -10z
m-26 -26 c10 -25 -1 -29 -14 -5 -6 12 -7 21 -1 21 5 0 12 -7 15 -16z"/>
<path d="M10050 8165 c0 -5 5 -17 10 -25 5 -8 10 -10 10 -5 0 6 -5 17 -10 25
-5 8 -10 11 -10 5z"/>
<path d="M10229 8113 c22 -34 46 -65 53 -69 7 -5 -5 16 -26 46 -57 80 -76 95
-27 23z"/>
<path d="M2416 8125 c5 -12 190 -267 283 -390 l30 -40 -67 -12 -67 -12 72 4
c56 3 74 0 85 -12 11 -13 5 -22 -37 -60 l-50 -45 53 37 c44 31 55 35 68 24 14
-12 14 -18 -2 -94 -2 -11 5 -2 15 20 11 22 20 35 20 29 1 -6 10 -22 22 -35 12
-13 134 -177 271 -364 138 -187 258 -347 266 -355 14 -13 15 -13 5 0 -6 8
-133 185 -282 393 -229 318 -271 382 -271 411 0 44 12 51 37 23 11 -12 127
-188 258 -392 130 -203 242 -374 248 -380 13 -12 24 -29 -230 375 -115 184
-213 341 -217 348 -7 12 -4 12 15 2 15 -7 10 2 -16 25 l-40 36 70 -5 70 -4
-83 17 c-45 10 -85 20 -88 23 -2 3 9 35 26 72 38 86 38 96 0 27 -40 -72 -40
-72 -35 -10 5 55 -2 42 -20 -36 l-7 -30 -44 50 -45 50 32 -49 c26 -40 29 -48
13 -42 -10 5 -27 11 -36 13 -10 3 -72 82 -139 177 -122 171 -166 226 -181 226
-4 0 -5 -7 -2 -15z m357 -411 c9 -4 17 -10 17 -15 0 -17 -27 -9 -46 12 -13 15
-14 20 -4 15 8 -3 23 -9 33 -12z m27 -38 c0 -11 -19 -15 -25 -6 -3 5 1 10 9
10 9 0 16 -2 16 -4z m10 -32 c0 -8 -5 -12 -10 -9 -6 4 -8 11 -5 16 9 14 15 11
15 -7z"/>
<path d="M9824 8050 c0 -52 1 -74 3 -47 2 26 2 68 0 95 -2 26 -3 4 -3 -48z"/>
<path d="M10070 8115 c0 -5 5 -17 10 -25 5 -8 10 -10 10 -5 0 6 -5 17 -10 25
-5 8 -10 11 -10 5z"/>
<path d="M9691 8074 c0 -11 3 -14 6 -6 3 7 2 16 -1 19 -3 4 -6 -2 -5 -13z"/>
<path d="M10092 8060 c31 -86 194 -470 200 -470 4 0 4 10 -1 23 -31 79 -193
452 -198 456 -3 3 -4 -1 -1 -9z"/>
<path d="M5270 8049 c0 -3 47 -109 104 -235 57 -126 102 -230 101 -232 -2 -2
-89 40 -194 92 -105 53 -191 94 -191 92 0 -2 83 -52 185 -111 102 -59 185
-110 185 -114 0 -4 -88 -22 -195 -40 -107 -19 -193 -36 -191 -38 2 -3 56 1
118 7 174 18 179 14 60 -49 -56 -30 -100 -56 -98 -58 1 -2 65 26 142 61 119
54 204 84 204 72 0 -5 -58 -290 -66 -321 -4 -16 -4 -27 0 -24 3 3 22 62 42
130 20 68 39 127 43 132 4 4 31 -82 61 -190 29 -109 57 -205 62 -213 7 -11 8
-10 4 5 -3 11 -26 117 -51 235 -26 118 -49 224 -52 234 -5 18 2 19 213 14 236
-6 237 2 1 22 -82 7 -143 16 -137 20 7 4 79 27 161 51 82 23 147 44 146 46 -2
1 -75 -11 -163 -27 -87 -16 -167 -30 -177 -30 -14 0 -3 29 58 150 41 83 73
150 71 150 -2 0 -39 -55 -83 -122 l-78 -123 -5 130 c-5 139 -19 139 -21 0 0
-44 -4 -99 -7 -122 l-7 -43 -95 178 c-121 227 -150 278 -150 271z"/>
<path d="M9681 8034 c0 -11 3 -14 6 -6 3 7 2 16 -1 19 -3 4 -6 -2 -5 -13z"/>
<path d="M9671 7994 c0 -11 3 -14 6 -6 3 7 2 16 -1 19 -3 4 -6 -2 -5 -13z"/>
<path d="M9661 7954 c0 -11 3 -14 6 -6 3 7 2 16 -1 19 -3 4 -6 -2 -5 -13z"/>
<path d="M9807 7700 c-4 -140 -12 -374 -17 -520 -5 -146 -14 -422 -21 -615 -6
-192 -14 -392 -17 -444 l-7 -93 -44 206 c-24 113 -46 204 -48 203 -3 -4 52
-399 63 -446 6 -28 0 -22 -207 168 -126 117 -99 83 85 -106 55 -56 97 -105 94
-108 -3 -3 -88 4 -188 15 -101 11 -185 18 -187 16 -2 -2 51 -14 119 -26 143
-26 165 -34 117 -44 -88 -17 -180 -39 -177 -42 2 -2 60 5 128 16 139 22 210
25 210 10 0 -6 -6 -21 -14 -33 -25 -41 -146 -277 -142 -277 3 0 37 52 77 115
39 63 76 118 82 122 6 4 7 -65 2 -213 -4 -120 -4 -217 -1 -213 3 3 10 77 16
165 18 285 22 324 34 324 6 0 92 -25 190 -55 99 -30 181 -54 183 -52 2 2 -67
30 -152 63 -85 32 -155 62 -155 67 0 4 66 8 148 8 l147 2 -160 17 c-88 10
-162 18 -164 19 -2 1 39 46 90 102 140 150 146 165 24 57 -60 -54 -111 -96
-113 -93 -2 2 10 55 27 119 17 63 31 119 30 123 0 4 -16 -35 -35 -87 l-34 -95
5 330 c2 182 10 580 16 885 6 305 9 580 7 610 -2 30 -7 -60 -11 -200z"/>
<path d="M4095 7720 c-3 -5 -2 -10 4 -10 5 0 13 5 16 10 3 6 2 10 -4 10 -5 0
-13 -4 -16 -10z"/>
<path d="M2610 7363 c0 -5 109 -106 242 -224 134 -118 282 -249 330 -292 49
-44 88 -76 88 -74 0 5 -552 508 -638 581 -12 11 -22 15 -22 9z"/>
<path d="M6838 7193 c7 -3 16 -2 19 1 4 3 -2 6 -13 5 -11 0 -14 -3 -6 -6z"/>
<path d="M3165 6911 c110 -111 202 -201 204 -201 7 0 -383 395 -394 399 -5 2
80 -87 190 -198z"/>
<path d="M291 7080 c-1 -3 44 -104 98 -225 55 -121 99 -221 98 -222 -1 -1 -91
43 -200 98 -108 55 -197 98 -197 95 0 -2 88 -55 195 -117 108 -63 191 -115
184 -118 -6 -2 -92 -18 -192 -36 -186 -34 -190 -42 -13 -25 55 5 101 8 103 6
2 -1 -42 -27 -97 -56 -55 -30 -98 -55 -96 -57 1 -2 67 26 146 62 117 53 190
77 190 63 0 -2 -16 -79 -35 -172 -20 -93 -34 -171 -32 -173 2 -1 21 57 42 129
21 73 41 136 44 140 3 4 30 -83 60 -193 30 -109 56 -197 58 -195 3 2 -7 58
-22 123 -14 65 -35 161 -46 213 -11 52 -22 103 -25 113 -5 16 9 17 203 18
l208 1 -168 18 c-308 33 -200 38 223 10 154 -10 360 -23 630 -40 91 -6 307
-19 480 -30 173 -12 387 -25 475 -30 88 -6 223 -15 300 -20 345 -23 398 -21
120 5 -88 9 -263 27 -390 40 -650 70 -1019 106 -1058 103 l-42 -3 40 -12 c22
-6 164 -21 315 -34 151 -13 264 -25 250 -27 -14 -2 -316 20 -672 48 -356 27
-660 50 -674 50 -41 0 -24 10 63 35 102 31 78 31 -82 0 -146 -28 -190 -31
-182 -12 3 6 35 75 71 152 36 77 60 132 53 122 -6 -10 -45 -68 -84 -130 l-73
-112 0 130 c0 88 -3 125 -10 115 -5 -8 -10 -49 -11 -90 0 -41 -4 -100 -8 -130
l-6 -55 -107 200 c-107 201 -126 234 -127 225z m1967 -557 c-15 -2 -42 -2 -60
0 -18 2 -6 4 27 4 33 0 48 -2 33 -4z m105 -10 c-7 -2 -21 -2 -30 0 -10 3 -4 5
12 5 17 0 24 -2 18 -5z"/>
<path d="M4721 7015 c-7 -36 -17 -65 -22 -65 -5 0 -9 3 -9 8 -1 4 -20 27 -42
52 -40 42 -38 36 9 -37 18 -26 17 -27 -2 -19 -45 18 -48 16 -10 -6 l40 -22
-80 -8 c-122 -11 -130 -16 -22 -15 53 1 97 0 97 -3 0 -17 -89 -67 -247 -140
-102 -47 -179 -88 -176 -93 4 -7 -1 -8 -13 -3 -13 5 -16 4 -8 -3 7 -8 31 -2
82 21 39 17 69 34 67 38 -5 8 165 84 172 77 2 -3 30 10 60 29 79 48 83 46 62
-29 -6 -22 -8 -41 -5 -44 2 -3 10 15 17 38 l13 44 7 -40 c5 -34 6 -31 8 28 0
37 5 67 11 67 5 0 34 -16 62 -36 l53 -36 -40 37 -40 37 70 -5 70 -6 -82 16
c-46 9 -83 21 -83 27 0 6 11 35 25 65 32 68 25 79 -10 14 l-25 -48 6 63 c3 34
4 62 2 62 -2 0 -10 -29 -17 -65z"/>
<path d="M3582 7030 c0 -14 2 -19 5 -12 2 6 2 18 0 25 -3 6 -5 1 -5 -13z"/>
<path d="M3713 7015 c0 -22 2 -30 4 -17 2 12 2 30 0 40 -3 9 -5 -1 -4 -23z"/>
<path d="M5291 6899 l-13 -62 -31 39 c-70 84 -87 94 -30 16 14 -18 23 -36 20
-38 -3 -3 -21 2 -41 10 -51 21 -45 11 11 -18 l48 -24 -80 -7 c-118 -9 -121
-13 -15 -14 56 -1 90 -5 85 -10 -9 -8 -107 -33 -660 -163 -115 -27 -212 -52
-215 -55 -7 -7 1 -5 436 93 205 46 377 84 383 84 6 0 -3 -14 -21 -31 l-33 -31
40 29 c49 37 85 56 91 50 3 -3 -2 -33 -11 -67 -19 -73 -14 -93 6 -23 12 43 14
46 20 23 5 -18 7 -11 8 28 1 63 12 66 79 21 l47 -30 -40 35 -40 36 60 -5 60
-4 -72 15 c-40 9 -73 21 -73 26 0 5 9 27 20 49 26 49 41 89 35 89 -3 0 -16
-22 -30 -50 -14 -27 -27 -50 -30 -50 -2 0 -1 23 2 50 8 70 -2 63 -16 -11z"/>
<path d="M3470 6945 c0 -5 5 -17 10 -25 5 -8 10 -10 10 -5 0 6 -5 17 -10 25
-5 8 -10 11 -10 5z"/>
<path d="M4063 6928 c-43 -57 -66 -91 -58 -86 12 7 78 98 72 98 -3 0 -9 -6
-14 -12z"/>
<path d="M3470 6871 c0 -6 4 -13 10 -16 6 -3 7 1 4 9 -7 18 -14 21 -14 7z"/>
<path d="M6141 6803 c17 -38 50 -112 74 -165 l44 -97 -130 64 c-71 36 -129 63
-129 61 0 -2 57 -37 127 -77 126 -73 126 -74 92 -81 -19 -4 -356 -18 -749 -33
-393 -14 -798 -30 -900 -34 -170 -9 -160 -9 110 -5 262 4 800 15 1309 28 l174
4 -59 -34 c-78 -45 -65 -43 41 6 87 40 125 49 125 30 0 -6 -9 -53 -21 -106
-11 -53 -19 -98 -16 -100 2 -2 14 34 28 81 13 46 26 81 30 77 3 -4 21 -64 40
-134 18 -70 35 -125 37 -123 2 2 -10 68 -28 147 -17 79 -32 150 -33 158 -2 13
19 15 143 13 148 -2 140 4 -35 23 l-60 7 100 33 c115 37 109 41 -25 14 -52
-10 -97 -16 -100 -14 -2 3 19 52 48 109 28 58 50 105 48 105 -2 0 -28 -39 -57
-87 l-54 -88 -5 95 -5 95 -8 -75 c-4 -41 -8 -91 -10 -110 -2 -32 -9 -21 -85
123 -46 86 -85 157 -87 157 -2 0 10 -30 26 -67z"/>
<path d="M4239 6819 l-24 -20 28 17 c15 9 27 18 27 20 0 8 -8 4 -31 -17z"/>
<path d="M4175 6774 l-30 -26 33 22 c17 12 32 23 32 26 0 7 -4 5 -35 -22z"/>
<path d="M5468 6773 c6 -2 18 -2 25 0 6 3 1 5 -13 5 -14 0 -19 -2 -12 -5z"/>
<path d="M3280 6767 c0 -2 15 -16 33 -33 l32 -29 -29 33 c-28 30 -36 37 -36
29z"/>
<path d="M3135 6745 c11 -9 29 -21 40 -26 l20 -10 -20 16 c-11 9 -29 21 -40
26 l-20 10 20 -16z"/>
<path d="M2031 6704 c0 -11 3 -14 6 -6 3 7 2 16 -1 19 -3 4 -6 -2 -5 -13z"/>
<path d="M3924 6688 l-19 -23 23 19 c21 18 27 26 19 26 -2 0 -12 -10 -23 -22z"/>
<path d="M4593 6607 c-95 -22 -171 -42 -169 -45 5 -4 388 77 395 84 12 12 -73
-3 -226 -39z"/>
<path d="M3095 6590 c-16 -7 -17 -9 -3 -9 9 -1 20 4 23 9 7 11 7 11 -20 0z"/>
<path d="M4328 6563 c6 -2 18 -2 25 0 6 3 1 5 -13 5 -14 0 -19 -2 -12 -5z"/>
<path d="M4350 6550 c-20 -6 -21 -8 -5 -8 11 0 31 4 45 8 20 6 21 8 5 8 -11 0
-31 -4 -45 -8z"/>
<path d="M4298 6533 c7 -3 16 -2 19 1 4 3 -2 6 -13 5 -11 0 -14 -3 -6 -6z"/>
<path d="M3278 6433 c7 -3 16 -2 19 1 4 3 -2 6 -13 5 -11 0 -14 -3 -6 -6z"/>
<path d="M4258 6423 c18 -2 45 -2 60 0 15 2 0 4 -33 4 -33 0 -45 -2 -27 -4z"/>
<path d="M4545 6410 c-327 -5 -303 -6 257 -8 403 -1 619 1 623 8 6 10 -184 10
-880 0z"/>
<path d="M3135 6344 c-5 -2 -91 -12 -190 -24 -391 -46 -680 -81 -900 -110
-126 -16 -233 -29 -237 -27 -4 1 4 26 17 55 35 75 31 78 -11 7 l-35 -60 5 60
5 60 -15 -60 c-8 -32 -17 -61 -19 -63 -2 -3 -16 10 -31 27 -14 17 -35 42 -46
54 l-20 22 16 -27 c9 -16 24 -40 33 -55 20 -30 23 -29 -34 -6 -11 4 -14 3 -9
-5 4 -7 14 -12 22 -12 30 0 12 -18 -23 -24 -131 -23 -132 -23 -28 -25 l100 -1
-45 -38 c-86 -72 -94 -83 -20 -28 41 30 76 51 78 47 2 -5 -4 -37 -13 -71 -19
-73 -14 -92 6 -23 l14 48 6 -35 c5 -28 7 -23 8 28 0 34 5 62 11 62 5 0 34 -16
62 -36 l53 -36 -40 37 -40 37 65 -5 65 -6 -77 16 c-43 9 -78 19 -78 22 0 4
129 23 288 45 158 21 350 46 427 57 77 10 235 30 350 44 282 35 312 39 300 46
-5 4 -14 5 -20 3z"/>
<path d="M3188 6343 c6 -2 18 -2 25 0 6 3 1 5 -13 5 -14 0 -19 -2 -12 -5z"/>
<path d="M5992 6310 c3 -8 45 -102 93 -208 48 -107 85 -196 82 -198 -12 -12
-111 23 -227 81 -72 36 -130 63 -130 61 0 -3 41 -28 90 -56 50 -28 90 -53 90
-54 0 -1 -377 73 -837 166 -461 92 -844 167 -852 165 -7 -1 98 -26 235 -55
1355 -288 1559 -334 1602 -359 23 -14 41 -27 39 -30 -3 -2 -89 -19 -193 -37
-192 -35 -199 -43 -20 -26 55 5 101 8 103 6 2 -2 -43 -29 -101 -60 -58 -32
-106 -59 -106 -61 0 -2 69 28 153 66 145 65 197 81 197 59 0 -5 -16 -85 -35
-177 -19 -91 -33 -168 -32 -170 2 -2 21 57 42 129 21 73 41 139 45 146 4 8 33
-84 66 -202 32 -119 60 -213 61 -209 2 5 -21 117 -50 251 l-54 242 216 1 216
1 -178 18 c-98 10 -180 19 -182 22 -2 2 65 24 150 48 85 24 153 46 151 48 -2
2 -78 -10 -168 -27 -91 -17 -168 -31 -171 -31 -4 0 29 72 73 160 44 88 78 160
76 160 -2 0 -42 -60 -88 -132 l-83 -133 -5 140 -5 140 -8 -110 c-9 -125 -17
-198 -22 -193 -1 1 -53 98 -115 213 -106 197 -131 241 -118 205z"/>
<path d="M4258 6273 c7 -3 16 -2 19 1 4 3 -2 6 -13 5 -11 0 -14 -3 -6 -6z"/>
<path d="M3980 6244 c0 -2 159 -83 353 -180 193 -97 353 -178 355 -179 2 -2
-2 -21 -8 -44 l-11 -41 -41 47 c-58 69 -65 74 -31 23 16 -25 33 -51 37 -57 4
-8 -11 -5 -39 7 -57 25 -52 11 6 -16 l42 -19 -34 -7 c-32 -6 -46 2 -239 139
-113 81 -211 151 -219 157 -8 6 -12 7 -9 1 4 -5 96 -75 207 -155 l200 -145
-37 -6 -37 -6 45 -2 c25 0 56 -9 69 -18 l24 -17 -49 -43 -49 -44 71 50 c39 28
73 51 76 51 3 0 -2 -32 -13 -72 -20 -78 -18 -107 2 -39 13 43 24 44 33 1 3
-14 3 2 1 35 -6 86 1 91 65 49 l55 -35 -40 37 -40 36 45 -7 c25 -3 60 -9 78
-12 17 -3 32 -3 32 0 0 2 -40 12 -90 22 -49 10 -90 19 -90 22 0 2 9 22 20 44
l21 40 212 -109 c647 -334 1847 -937 1884 -948 55 -17 62 -3 19 33 -19 15
-501 255 -1070 532 -570 278 -1036 509 -1036 514 0 4 5 18 11 30 10 21 10 21
-5 3 -9 -11 -16 -24 -16 -28 0 -5 -9 -4 -19 2 -13 6 -18 17 -15 32 l5 23 -10
-22 c-10 -21 -14 -20 -193 69 -282 139 -528 257 -528 252z m731 -410 c-15 -34
-20 -28 -14 14 4 23 9 30 16 23 7 -7 7 -18 -2 -37z m-66 -84 c-3 -5 -12 -10
-20 -10 -8 0 -17 5 -20 10 -4 6 5 10 20 10 15 0 24 -4 20 -10z"/>
<path d="M3140 6229 c-165 -58 -673 -220 -677 -216 -3 3 6 31 20 61 34 75 25
72 -13 -4 -17 -33 -32 -60 -35 -60 -2 0 -2 24 0 53 5 53 -2 40 -20 -38 l-7
-30 -50 55 -50 55 31 -47 c17 -26 31 -49 31 -52 0 -4 -16 1 -36 9 -55 23 -55
17 1 -13 l50 -26 -80 -8 c-129 -12 -137 -16 -27 -14 56 0 102 -2 102 -5 0 -3
-27 -28 -60 -54 -33 -26 -60 -50 -60 -52 0 -4 61 38 113 78 32 24 32 20 12
-66 -17 -69 -12 -86 6 -24 12 39 14 41 20 18 5 -16 7 -7 8 32 1 31 4 58 7 61
3 4 34 -14 70 -39 75 -52 84 -52 17 2 l-48 37 70 -5 70 -6 -78 17 c-43 9 -77
22 -77 27 1 10 134 57 497 174 105 35 200 69 210 77 20 15 18 16 -17 3z"/>
<path d="M4280 6138 c83 -38 118 -52 105 -40 -12 11 -152 72 -163 71 -4 0 22
-14 58 -31z"/>
<path d="M3156 6111 c-4 -5 -2 -12 3 -15 5 -4 12 -2 15 3 4 5 2 12 -3 15 -5 4
-12 2 -15 -3z"/>
<path d="M4100 6106 c0 -2 8 -10 18 -17 15 -13 16 -12 3 4 -13 16 -21 21 -21
13z"/>
<path d="M3010 6029 c-98 -58 -156 -97 -100 -69 42 21 210 122 210 126 0 7 -2
6 -110 -57z"/>
<path d="M4070 6078 c0 -3 48 -45 108 -93 127 -105 132 -109 132 -102 0 2 -46
42 -102 88 -57 45 -111 89 -120 97 -10 8 -18 13 -18 10z"/>
<path d="M651 6054 c0 -11 3 -14 6 -6 3 7 2 16 -1 19 -3 4 -6 -2 -5 -13z"/>
<path d="M3254 6038 l-19 -23 23 19 c21 18 27 26 19 26 -2 0 -12 -10 -23 -22z"/>
<path d="M3989 6037 c14 -15 27 -25 30 -22 6 7 61 -46 61 -59 0 -5 -14 3 -32
20 -31 29 13 -23 434 -510 120 -138 218 -254 218 -258 0 -4 -19 -9 -42 -11
-43 -3 -42 -4 8 -5 39 -2 56 -7 73 -26 l23 -24 -33 -32 -34 -33 39 28 38 28
23 -29 c13 -16 20 -37 18 -48 -4 -17 -3 -18 6 -6 6 10 13 11 19 5 5 -6 192
-222 415 -482 224 -259 419 -481 434 -493 37 -29 42 -9 9 38 -14 20 -208 242
-431 492 l-405 455 0 58 c0 31 3 57 8 57 4 0 32 -16 62 -36 l55 -35 -40 36
-40 36 65 -5 65 -5 -70 15 c-103 22 -98 18 -76 61 26 52 51 113 46 113 -3 0
-18 -26 -35 -57 l-31 -58 5 65 4 65 -15 -68 c-9 -37 -19 -66 -23 -65 -4 2 -26
25 -49 51 -47 56 -55 51 -11 -7 17 -22 28 -41 27 -43 -2 -1 -22 5 -45 14 -34
13 -106 86 -393 400 -194 211 -354 381 -357 378 -3 -3 -15 3 -26 12 -15 13
-14 10 3 -10z m474 -505 c158 -177 283 -322 278 -322 -9 0 -608 669 -644 719
-33 46 72 -68 366 -397z m352 -314 c5 -4 -2 -8 -16 -8 -24 0 -49 16 -49 32 0
8 48 -10 65 -24z m-35 -43 c7 -8 8 -15 2 -15 -5 0 -15 7 -22 15 -7 8 -8 15 -2
15 5 0 15 -7 22 -15z m60 -5 c0 -5 -5 -10 -11 -10 -5 0 -7 5 -4 10 3 6 8 10
11 10 2 0 4 -4 4 -10z m-20 -35 c20 -24 6 -28 -15 -5 -10 11 -13 20 -8 20 6 0
16 -7 23 -15z m30 -35 c0 -5 -5 -10 -11 -10 -5 0 -7 5 -4 10 3 6 8 10 11 10 2
0 4 -4 4 -10z"/>
<path d="M3960 6036 c0 -2 8 -10 18 -17 15 -13 16 -12 3 4 -13 16 -21 21 -21
13z"/>
<path d="M4005 5980 c10 -11 20 -20 23 -20 3 0 -3 9 -13 20 -10 11 -20 20 -23
20 -3 0 3 -9 13 -20z"/>
<path d="M3692 5950 c0 -14 2 -19 5 -12 2 6 2 18 0 25 -3 6 -5 1 -5 -13z"/>
<path d="M4061 5910 c169 -216 371 -470 379 -475 6 -3 10 -4 10 -1 0 8 -368
466 -398 496 -16 15 -12 7 9 -20z"/>
<path d="M3797 5920 c3 -11 7 -20 9 -20 2 0 4 9 4 20 0 11 -4 20 -9 20 -5 0
-7 -9 -4 -20z"/>
<path d="M3972 5890 c365 -644 650 -1148 789 -1393 96 -169 184 -320 196 -335
32 -40 38 -20 10 35 -34 68 -997 1716 -1010 1728 -6 6 1 -10 15 -35z"/>
<path d="M3955 5830 c26 -52 67 -135 90 -185 36 -75 294 -602 422 -862 32 -64
53 -90 53 -65 0 12 -590 1185 -602 1197 -6 6 11 -33 37 -85z"/>
<path d="M3704 5745 c0 -55 1 -76 3 -47 2 29 2 74 0 100 -2 26 -3 2 -3 -53z"/>
<path d="M3830 5797 c0 -4 117 -473 260 -1043 143 -571 260 -1042 260 -1048 0
-6 -47 76 -103 181 -150 279 -150 273 2 -61 44 -99 81 -184 81 -188 0 -5 -89
36 -197 91 -108 55 -198 100 -199 98 -1 -1 85 -53 192 -116 107 -62 193 -115
190 -118 -2 -3 -87 -20 -188 -38 -187 -34 -191 -42 -14 -25 55 5 101 9 102 7
2 -1 -42 -27 -97 -56 -54 -30 -98 -56 -96 -58 2 -1 67 26 146 62 78 36 152 65
165 65 l24 0 -34 -162 c-19 -90 -33 -167 -31 -171 1 -5 20 52 42 126 22 75 42
131 46 125 3 -5 30 -99 60 -209 30 -110 55 -196 57 -191 1 5 -17 100 -42 213
-24 112 -47 219 -51 237 l-7 32 209 1 208 2 -167 17 c-93 9 -170 19 -173 21
-2 3 63 25 146 48 82 24 148 46 145 48 -2 2 -77 -10 -166 -27 -89 -17 -164
-29 -167 -27 -2 3 30 74 72 158 43 85 72 150 67 144 -6 -5 -44 -63 -85 -127
l-74 -117 -7 46 c-3 25 -7 87 -8 137 -1 65 -3 74 -5 31 -8 -172 -10 -170 -79
90 -62 234 -87 327 -125 470 -24 86 -113 424 -219 825 -15 58 -51 195 -80 305
-46 177 -60 224 -60 202z"/>
<path d="M3712 5620 c0 -14 2 -19 5 -12 2 6 2 18 0 25 -3 6 -5 1 -5 -13z"/>
<path d="M3918 3513 c7 -3 16 -2 19 1 4 3 -2 6 -13 5 -11 0 -14 -3 -6 -6z"/>
</g>
</svg>
